<svg width="174" height="66" viewBox="0 0 174 66" fill="none" xmlns="http://www.w3.org/2000/svg">
<path d="M49.592 30.24V48H45.488V30.24H49.592ZM65.7901 34.608V48H61.6861V46.176C61.2701 46.768 60.7021 47.248 59.9821 47.616C59.2781 47.968 58.4941 48.144 57.6301 48.144C56.6061 48.144 55.7021 47.92 54.9181 47.472C54.1341 47.008 53.5261 46.344 53.0941 45.48C52.6621 44.616 52.4461 43.6 52.4461 42.432V34.608H56.5261V41.88C56.5261 42.776 56.7581 43.472 57.2221 43.968C57.6861 44.464 58.3101 44.712 59.0941 44.712C59.8941 44.712 60.5261 44.464 60.9901 43.968C61.4541 43.472 61.6861 42.776 61.6861 41.88V34.608H65.7901ZM73.826 34.416C74.77 34.416 75.594 34.608 76.298 34.992C77.018 35.376 77.57 35.88 77.954 36.504V34.608H82.058V47.976C82.058 49.208 81.81 50.32 81.314 51.312C80.834 52.32 80.09 53.12 79.082 53.712C78.09 54.304 76.85 54.6 75.362 54.6C73.378 54.6 71.77 54.128 70.538 53.184C69.306 52.256 68.602 50.992 68.426 49.392H72.482C72.61 49.904 72.914 50.304 73.394 50.592C73.874 50.896 74.466 51.048 75.17 51.048C76.018 51.048 76.69 50.8 77.186 50.304C77.698 49.824 77.954 49.048 77.954 47.976V46.08C77.554 46.704 77.002 47.216 76.298 47.616C75.594 48 74.77 48.192 73.826 48.192C72.722 48.192 71.722 47.912 70.826 47.352C69.93 46.776 69.218 45.968 68.69 44.928C68.178 43.872 67.922 42.656 67.922 41.28C67.922 39.904 68.178 38.696 68.69 37.656C69.218 36.616 69.93 35.816 70.826 35.256C71.722 34.696 72.722 34.416 73.826 34.416ZM77.954 41.304C77.954 40.28 77.666 39.472 77.09 38.88C76.53 38.288 75.842 37.992 75.026 37.992C74.21 37.992 73.514 38.288 72.938 38.88C72.378 39.456 72.098 40.256 72.098 41.28C72.098 42.304 72.378 43.12 72.938 43.728C73.514 44.32 74.21 44.616 75.026 44.616C75.842 44.616 76.53 44.32 77.09 43.728C77.666 43.136 77.954 42.328 77.954 41.304ZM98.2511 34.608V48H94.1471V46.176C93.7311 46.768 93.1631 47.248 92.4431 47.616C91.7391 47.968 90.9551 48.144 90.0911 48.144C89.0671 48.144 88.1631 47.92 87.3791 47.472C86.5951 47.008 85.9871 46.344 85.5551 45.48C85.1231 44.616 84.9071 43.6 84.9071 42.432V34.608H88.9871V41.88C88.9871 42.776 89.2191 43.472 89.6831 43.968C90.1471 44.464 90.7711 44.712 91.5551 44.712C92.3551 44.712 92.9871 44.464 93.4511 43.968C93.9151 43.472 94.1471 42.776 94.1471 41.88V34.608H98.2511ZM113.823 41.088C113.823 41.472 113.799 41.872 113.751 42.288H104.463C104.527 43.12 104.791 43.76 105.255 44.208C105.735 44.64 106.319 44.856 107.007 44.856C108.031 44.856 108.743 44.424 109.143 43.56H113.511C113.287 44.44 112.879 45.232 112.287 45.936C111.711 46.64 110.983 47.192 110.103 47.592C109.223 47.992 108.239 48.192 107.151 48.192C105.839 48.192 104.671 47.912 103.647 47.352C102.623 46.792 101.823 45.992 101.247 44.952C100.671 43.912 100.383 42.696 100.383 41.304C100.383 39.912 100.663 38.696 101.223 37.656C101.799 36.616 102.599 35.816 103.623 35.256C104.647 34.696 105.823 34.416 107.151 34.416C108.447 34.416 109.599 34.688 110.607 35.232C111.615 35.776 112.399 36.552 112.959 37.56C113.535 38.568 113.823 39.744 113.823 41.088ZM109.623 40.008C109.623 39.304 109.383 38.744 108.903 38.328C108.423 37.912 107.823 37.704 107.103 37.704C106.415 37.704 105.831 37.904 105.351 38.304C104.887 38.704 104.599 39.272 104.487 40.008H109.623Z" fill="#FDD70D"/>
<path d="M126.188 39.36C127.164 39.568 127.948 40.056 128.54 40.824C129.132 41.576 129.428 42.44 129.428 43.416C129.428 44.824 128.932 45.944 127.94 46.776C126.964 47.592 125.596 48 123.836 48H115.988V31.152H123.572C125.284 31.152 126.62 31.544 127.58 32.328C128.556 33.112 129.044 34.176 129.044 35.52C129.044 36.512 128.78 37.336 128.252 37.992C127.74 38.648 127.052 39.104 126.188 39.36ZM120.092 37.968H122.78C123.452 37.968 123.964 37.824 124.316 37.536C124.684 37.232 124.868 36.792 124.868 36.216C124.868 35.64 124.684 35.2 124.316 34.896C123.964 34.592 123.452 34.44 122.78 34.44H120.092V37.968ZM123.116 44.688C123.804 44.688 124.332 44.536 124.7 44.232C125.084 43.912 125.276 43.456 125.276 42.864C125.276 42.272 125.076 41.808 124.676 41.472C124.292 41.136 123.756 40.968 123.068 40.968H120.092V44.688H123.116ZM144.432 41.088C144.432 41.472 144.408 41.872 144.36 42.288H135.072C135.136 43.12 135.4 43.76 135.864 44.208C136.344 44.64 136.928 44.856 137.616 44.856C138.64 44.856 139.352 44.424 139.752 43.56H144.12C143.896 44.44 143.488 45.232 142.896 45.936C142.32 46.64 141.592 47.192 140.712 47.592C139.832 47.992 138.848 48.192 137.76 48.192C136.448 48.192 135.28 47.912 134.256 47.352C133.232 46.792 132.432 45.992 131.856 44.952C131.28 43.912 130.992 42.696 130.992 41.304C130.992 39.912 131.272 38.696 131.832 37.656C132.408 36.616 133.208 35.816 134.232 35.256C135.256 34.696 136.432 34.416 137.76 34.416C139.056 34.416 140.208 34.688 141.216 35.232C142.224 35.776 143.008 36.552 143.568 37.56C144.144 38.568 144.432 39.744 144.432 41.088ZM140.232 40.008C140.232 39.304 139.992 38.744 139.512 38.328C139.032 37.912 138.432 37.704 137.712 37.704C137.024 37.704 136.44 37.904 135.96 38.304C135.496 38.704 135.208 39.272 135.096 40.008H140.232ZM163.685 34.464C165.349 34.464 166.669 34.968 167.645 35.976C168.637 36.984 169.133 38.384 169.133 40.176V48H165.053V40.728C165.053 39.864 164.821 39.2 164.357 38.736C163.909 38.256 163.285 38.016 162.485 38.016C161.685 38.016 161.053 38.256 160.589 38.736C160.141 39.2 159.917 39.864 159.917 40.728V48H155.837V40.728C155.837 39.864 155.605 39.2 155.141 38.736C154.693 38.256 154.069 38.016 153.269 38.016C152.469 38.016 151.837 38.256 151.373 38.736C150.925 39.2 150.701 39.864 150.701 40.728V48H146.597V34.608H150.701V36.288C151.117 35.728 151.661 35.288 152.333 34.968C153.005 34.632 153.765 34.464 154.613 34.464C155.621 34.464 156.517 34.68 157.301 35.112C158.101 35.544 158.725 36.16 159.173 36.96C159.637 36.224 160.269 35.624 161.069 35.16C161.869 34.696 162.741 34.464 163.685 34.464Z" fill="#28AAE3"/>
<g clip-path="url(#clip0_113_62)">
<path d="M42 48H28V35H20V48H6V27C6 26.7348 6.10536 26.4804 6.29289 26.2929C6.48043 26.1054 6.73478 26 7 26C7.26522 26 7.51957 26.1054 7.70711 26.2929C7.89464 26.4804 8 26.7348 8 27V46H18V33H30V46H40V28C40 27.7348 40.1054 27.4804 40.2929 27.2929C40.4804 27.1054 40.7348 27 41 27C41.2652 27 41.5196 27.1054 41.7071 27.2929C41.8946 27.4804 42 27.7348 42 28V48Z" fill="#FDD70D"/>
<path d="M47 27C46.7426 27.0003 46.4949 26.9011 46.309 26.723L24 5.384L1.69101 26.723C1.49939 26.9064 1.24277 27.0062 0.977589 27.0003C0.712413 26.9945 0.460407 26.8836 0.27701 26.692C0.0936125 26.5004 -0.00615291 26.2438 -0.000339282 25.9786C0.00547435 25.7134 0.116391 25.4614 0.30801 25.278L24 2.616L47.691 25.277C47.8354 25.415 47.9352 25.593 47.9775 25.7882C48.0198 25.9835 48.0027 26.1868 47.9283 26.3722C47.854 26.5576 47.7258 26.7165 47.5604 26.8284C47.3949 26.9402 47.1997 27 47 27ZM39 15C38.7348 15 38.4804 14.8946 38.2929 14.7071C38.1054 14.5196 38 14.2652 38 14V8H32C31.7348 8 31.4804 7.89464 31.2929 7.7071C31.1054 7.51957 31 7.26521 31 7C31 6.73478 31.1054 6.48043 31.2929 6.29289C31.4804 6.10535 31.7348 6 32 6H40V14C40 14.2652 39.8947 14.5196 39.7071 14.7071C39.5196 14.8946 39.2652 15 39 15Z" fill="#FDD70D"/>
</g>
<path d="M125 55H164C166.761 55 169 57.2386 169 60V61C169 63.7614 166.761 66 164 66H130C127.239 66 125 63.7614 125 61V55Z" fill="#1D92C5"/>
<path d="M139.371 58.49V62H138.516V60.555H137.186V62H136.331V58.49H137.186V59.865H138.516V58.49H139.371ZM140.418 58.92C140.268 58.92 140.144 58.8767 140.048 58.79C139.954 58.7 139.908 58.59 139.908 58.46C139.908 58.3267 139.954 58.2167 140.048 58.13C140.144 58.04 140.268 57.995 140.418 57.995C140.564 57.995 140.684 58.04 140.778 58.13C140.874 58.2167 140.923 58.3267 140.923 58.46C140.923 58.59 140.874 58.7 140.778 58.79C140.684 58.8767 140.564 58.92 140.418 58.92ZM140.843 59.21V62H139.988V59.21H140.843ZM142.597 62.04C142.354 62.04 142.137 61.9983 141.947 61.915C141.757 61.8317 141.607 61.7183 141.497 61.575C141.387 61.4283 141.326 61.265 141.312 61.085H142.157C142.167 61.1817 142.212 61.26 142.292 61.32C142.372 61.38 142.471 61.41 142.587 61.41C142.694 61.41 142.776 61.39 142.832 61.35C142.892 61.3067 142.922 61.2517 142.922 61.185C142.922 61.105 142.881 61.0467 142.797 61.01C142.714 60.97 142.579 60.9267 142.392 60.88C142.192 60.8333 142.026 60.785 141.892 60.735C141.759 60.6817 141.644 60.6 141.547 60.49C141.451 60.3767 141.402 60.225 141.402 60.035C141.402 59.875 141.446 59.73 141.532 59.6C141.622 59.4667 141.752 59.3617 141.922 59.285C142.096 59.2083 142.301 59.17 142.537 59.17C142.887 59.17 143.162 59.2567 143.362 59.43C143.566 59.6033 143.682 59.8333 143.712 60.12H142.922C142.909 60.0233 142.866 59.9467 142.792 59.89C142.722 59.8333 142.629 59.805 142.512 59.805C142.412 59.805 142.336 59.825 142.282 59.865C142.229 59.9017 142.202 59.9533 142.202 60.02C142.202 60.1 142.244 60.16 142.327 60.2C142.414 60.24 142.547 60.28 142.727 60.32C142.934 60.3733 143.102 60.4267 143.232 60.48C143.362 60.53 143.476 60.6133 143.572 60.73C143.672 60.8433 143.724 60.9967 143.727 61.19C143.727 61.3533 143.681 61.5 143.587 61.63C143.497 61.7567 143.366 61.8567 143.192 61.93C143.022 62.0033 142.824 62.04 142.597 62.04ZM145.805 61.275V62H145.37C145.06 62 144.819 61.925 144.645 61.775C144.472 61.6217 144.385 61.3733 144.385 61.03V59.92H144.045V59.21H144.385V58.53H145.24V59.21H145.8V59.92H145.24V61.04C145.24 61.1233 145.26 61.1833 145.3 61.22C145.34 61.2567 145.407 61.275 145.5 61.275H145.805ZM147.552 62.04C147.278 62.04 147.032 61.9817 146.812 61.865C146.595 61.7483 146.423 61.5817 146.297 61.365C146.173 61.1483 146.112 60.895 146.112 60.605C146.112 60.3183 146.175 60.0667 146.302 59.85C146.428 59.63 146.602 59.4617 146.822 59.345C147.042 59.2283 147.288 59.17 147.562 59.17C147.835 59.17 148.082 59.2283 148.302 59.345C148.522 59.4617 148.695 59.63 148.822 59.85C148.948 60.0667 149.012 60.3183 149.012 60.605C149.012 60.8917 148.947 61.145 148.817 61.365C148.69 61.5817 148.515 61.7483 148.292 61.865C148.072 61.9817 147.825 62.04 147.552 62.04ZM147.552 61.3C147.715 61.3 147.853 61.24 147.967 61.12C148.083 61 148.142 60.8283 148.142 60.605C148.142 60.3817 148.085 60.21 147.972 60.09C147.862 59.97 147.725 59.91 147.562 59.91C147.395 59.91 147.257 59.97 147.147 60.09C147.037 60.2067 146.982 60.3783 146.982 60.605C146.982 60.8283 147.035 61 147.142 61.12C147.252 61.24 147.388 61.3 147.552 61.3ZM148.212 58.495L147.007 59V58.41L148.212 57.83V58.495ZM150.32 59.675C150.42 59.5217 150.545 59.4017 150.695 59.315C150.845 59.225 151.012 59.18 151.195 59.18V60.085H150.96C150.747 60.085 150.587 60.1317 150.48 60.225C150.374 60.315 150.32 60.475 150.32 60.705V62H149.465V59.21H150.32V59.675ZM152.034 58.92C151.884 58.92 151.761 58.8767 151.664 58.79C151.571 58.7 151.524 58.59 151.524 58.46C151.524 58.3267 151.571 58.2167 151.664 58.13C151.761 58.04 151.884 57.995 152.034 57.995C152.181 57.995 152.301 58.04 152.394 58.13C152.491 58.2167 152.539 58.3267 152.539 58.46C152.539 58.59 152.491 58.7 152.394 58.79C152.301 58.8767 152.181 58.92 152.034 58.92ZM152.459 59.21V62H151.604V59.21H152.459ZM152.909 60.605C152.909 60.315 152.967 60.0617 153.084 59.845C153.204 59.6283 153.369 59.4617 153.579 59.345C153.792 59.2283 154.035 59.17 154.309 59.17C154.659 59.17 154.95 59.2617 155.184 59.445C155.42 59.6283 155.575 59.8867 155.649 60.22H154.739C154.662 60.0067 154.514 59.9 154.294 59.9C154.137 59.9 154.012 59.9617 153.919 60.085C153.825 60.205 153.779 60.3783 153.779 60.605C153.779 60.8317 153.825 61.0067 153.919 61.13C154.012 61.25 154.137 61.31 154.294 61.31C154.514 61.31 154.662 61.2033 154.739 60.99H155.649C155.575 61.3167 155.42 61.5733 155.184 61.76C154.947 61.9467 154.655 62.04 154.309 62.04C154.035 62.04 153.792 61.9817 153.579 61.865C153.369 61.7483 153.204 61.5817 153.084 61.365C152.967 61.1483 152.909 60.895 152.909 60.605ZM157.376 62.04C157.103 62.04 156.856 61.9817 156.636 61.865C156.419 61.7483 156.248 61.5817 156.121 61.365C155.998 61.1483 155.936 60.895 155.936 60.605C155.936 60.3183 155.999 60.0667 156.126 59.85C156.253 59.63 156.426 59.4617 156.646 59.345C156.866 59.2283 157.113 59.17 157.386 59.17C157.659 59.17 157.906 59.2283 158.126 59.345C158.346 59.4617 158.519 59.63 158.646 59.85C158.773 60.0667 158.836 60.3183 158.836 60.605C158.836 60.8917 158.771 61.145 158.641 61.365C158.514 61.5817 158.339 61.7483 158.116 61.865C157.896 61.9817 157.649 62.04 157.376 62.04ZM157.376 61.3C157.539 61.3 157.678 61.24 157.791 61.12C157.908 61 157.966 60.8283 157.966 60.605C157.966 60.3817 157.909 60.21 157.796 60.09C157.686 59.97 157.549 59.91 157.386 59.91C157.219 59.91 157.081 59.97 156.971 60.09C156.861 60.2067 156.806 60.3783 156.806 60.605C156.806 60.8283 156.859 61 156.966 61.12C157.076 61.24 157.213 61.3 157.376 61.3Z" fill="white"/>
<defs>
<clipPath id="clip0_113_62">
<rect width="48" height="48" fill="white"/>
</clipPath>
</defs>
</svg>
