<svg width="139" height="139" viewBox="0 0 139 139" fill="none" xmlns="http://www.w3.org/2000/svg">
<path d="M69.2359 124.163C98.3324 124.163 121.92 111.834 121.92 96.6245C121.92 81.4153 98.3324 69.0858 69.2359 69.0858C40.1395 69.0858 16.5521 81.4153 16.5521 96.6245C16.5521 111.834 40.1395 124.163 69.2359 124.163Z" fill="#FAFAFA"/>
<path d="M69.8753 102.982C68.641 102.982 67.3872 102.929 66.1501 102.827C56.3951 102.009 47.6853 98.0701 43.4152 92.5406L43.2429 92.321L47.1933 89.263L47.3628 89.4826C51.291 94.5645 60.3482 97.9783 69.9003 97.9783C70.7927 97.9783 71.6906 97.9477 72.5663 97.8866C78.5072 97.4724 83.6446 95.6848 86.7249 92.9743L83.9449 89.9552L93.8 89.3992L92.9326 99.7047L90.1137 96.6467C86.1772 100.163 80.0862 102.371 72.9222 102.871C71.9158 102.946 70.89 102.982 69.8753 102.982Z" fill="#E0E0E0"/>
<path d="M58.2521 77.0977V73.1112L63.4313 70.1199V74.1065L58.2521 77.0977Z" fill="#F0F0F0"/>
<path d="M58.2521 73.1112L51.7803 69.3721V73.3586L58.2521 77.0977V73.1112Z" fill="#E6E6E6"/>
<path d="M58.2521 73.1112L63.5842 70.031L56.9566 66.2029L51.6246 69.2832L58.2521 73.1112Z" fill="#FAFAFA"/>
<path d="M58.2521 73.1112V74.1065L63.5842 71.029V70.031L58.2521 73.1112Z" fill="#F0F0F0"/>
<path d="M58.2521 74.1065L63.4313 71.118V71.3376L58.2521 74.3261V74.1065Z" fill="#E6E6E6"/>
<path d="M51.6246 69.2832L58.2521 73.1112V74.1065L51.6246 70.2812V69.2832Z" fill="#E6E6E6"/>
<path d="M58.2521 74.1065L51.7803 70.3701V70.5898L58.2521 74.3261V74.1065Z" fill="#E0E0E0"/>
<path d="M59.9563 73.7173L61.7271 72.6942C61.8022 72.6525 61.8633 72.6942 61.8633 72.7748V73.8201C61.8609 73.8679 61.8473 73.9143 61.8236 73.9559C61.8 73.9974 61.7669 74.0328 61.7271 74.0592L59.9563 75.0822C59.8812 75.1267 59.82 75.0822 59.82 75.0016V73.948C59.8237 73.9017 59.8379 73.8569 59.8615 73.8169C59.8851 73.7769 59.9175 73.7429 59.9563 73.7173Z" fill="#EBEBEB"/>
<path d="M60.0703 73.834L61.6132 72.9444C61.6632 72.9166 61.7049 72.9444 61.7049 72.9972V73.7812C61.7029 73.8133 61.6936 73.8445 61.6777 73.8724C61.6618 73.9004 61.6397 73.9243 61.6132 73.9425L60.0703 74.832C60.0202 74.8626 59.9785 74.832 59.9785 74.7792V73.9953C59.9805 73.9632 59.9898 73.932 60.0057 73.904C60.0216 73.8761 60.0437 73.8522 60.0703 73.834Z" fill="#FAFAFA"/>
<path d="M58.2521 72.6108V68.6243L63.4313 65.633V69.6195L58.2521 72.6108Z" fill="#F0F0F0"/>
<path d="M58.2521 68.6243L51.7803 64.8852V68.8717L58.2521 72.6108V68.6243Z" fill="#E6E6E6"/>
<path d="M58.2521 68.6243L63.5842 65.5441L56.9566 61.716L51.6246 64.7962L58.2521 68.6243Z" fill="#F5F5F5"/>
<path d="M58.2521 68.6243V69.6195L63.5842 66.5421V65.5441L58.2521 68.6243Z" fill="#F0F0F0"/>
<path d="M58.2521 69.6195L63.4313 66.631V66.8479L58.2521 69.8392V69.6195Z" fill="#E6E6E6"/>
<path d="M51.6246 64.7962L58.2521 68.6243V69.6195L51.6246 65.7943V64.7962Z" fill="#E6E6E6"/>
<path d="M58.2521 69.6195L51.7803 65.8832V66.1028L58.2521 69.8392V69.6195Z" fill="#E0E0E0"/>
<path d="M59.9563 69.222L61.7271 68.199C61.8022 68.1545 61.8633 68.199 61.8633 68.2796V69.3249C61.8609 69.3726 61.8473 69.4191 61.8236 69.4606C61.8 69.5021 61.7669 69.5375 61.7271 69.5639L59.9563 70.5842C59.8812 70.6287 59.82 70.5842 59.82 70.5064V69.4611C59.822 69.4133 59.8355 69.3666 59.8591 69.325C59.8828 69.2834 59.9161 69.2481 59.9563 69.222Z" fill="#EBEBEB"/>
<path d="M60.0703 69.3471L61.6132 68.4575C61.6632 68.4269 61.7049 68.4575 61.7049 68.5103V69.2943C61.7031 69.326 61.6938 69.3569 61.6779 69.3845C61.662 69.412 61.6398 69.4354 61.6132 69.4527L60.0703 70.334C60.0202 70.3618 59.9785 70.334 59.9785 70.2812V69.5C59.9814 69.4693 59.9911 69.4396 60.007 69.4131C60.0228 69.3866 60.0445 69.3641 60.0703 69.3471Z" fill="#FAFAFA"/>
<path d="M63.1533 69.7808L58.2521 72.6108L52.0583 69.0302L51.9082 69.1219L58.2521 72.7721L63.3034 69.8697L63.1533 69.7808Z" fill="#E0E0E0"/>
<path opacity="0.5" d="M63.1533 69.7808L58.2521 72.6108L52.0583 69.0302L51.9082 69.1219L58.2521 72.7721L63.3034 69.8697L63.1533 69.7808Z" fill="#E0E0E0"/>
<path d="M80.7479 77.0977V73.1112L75.5687 70.1199V74.1065L80.7479 77.0977Z" fill="#F0F0F0"/>
<path d="M80.7479 73.1112L87.2197 69.3721V73.3586L80.7479 77.0977V73.1112Z" fill="#E6E6E6"/>
<path d="M80.7479 73.1112L75.4158 70.031L82.0434 66.2029L87.3754 69.2832L80.7479 73.1112Z" fill="#FAFAFA"/>
<path d="M80.7479 73.1112V74.1065L75.4158 71.029V70.031L80.7479 73.1112Z" fill="#F0F0F0"/>
<path d="M80.7479 74.1065L75.5687 71.118V71.3376L80.7479 74.3261V74.1065Z" fill="#E6E6E6"/>
<path d="M87.3754 69.2832L80.7479 73.1112V74.1065L87.3754 70.2812V69.2832Z" fill="#E6E6E6"/>
<path d="M80.7479 74.1065L87.2225 70.3701L87.2197 70.5898L80.7479 74.3261V74.1065Z" fill="#E0E0E0"/>
<path d="M79.0437 73.7173L77.284 72.6942C77.2089 72.6525 77.1478 72.6942 77.1478 72.7748V73.8201C77.1502 73.8679 77.1638 73.9143 77.1875 73.9559C77.2111 73.9974 77.2442 74.0328 77.284 74.0592L79.0548 75.0822C79.1299 75.1267 79.1911 75.0822 79.1911 75.0016V73.948C79.1861 73.9007 79.1702 73.8553 79.1447 73.8152C79.1191 73.7752 79.0845 73.7416 79.0437 73.7173Z" fill="#EBEBEB"/>
<path d="M78.9297 73.834L77.3868 72.9444C77.3368 72.9166 77.2951 72.9444 77.2951 72.9972V73.7812C77.2971 73.8133 77.3064 73.8445 77.3223 73.8724C77.3382 73.9004 77.3603 73.9243 77.3868 73.9425L78.9297 74.832C78.9798 74.8626 79.0215 74.832 79.0215 74.7792V73.9953C79.0195 73.9632 79.0102 73.932 78.9943 73.904C78.9784 73.8761 78.9563 73.8522 78.9297 73.834Z" fill="#FAFAFA"/>
<path d="M80.7479 72.6108V68.6243L75.5687 65.633V69.6195L80.7479 72.6108Z" fill="#F0F0F0"/>
<path d="M80.7479 68.6243L87.2197 64.8852V68.8717L80.7479 72.6108V68.6243Z" fill="#E6E6E6"/>
<path d="M80.7479 68.6243L75.4158 65.5441L82.0434 61.716L87.3754 64.7962L80.7479 68.6243Z" fill="#F5F5F5"/>
<path d="M80.7479 68.6243V69.6195L75.4158 66.5421V65.5441L80.7479 68.6243Z" fill="#F0F0F0"/>
<path d="M80.7479 69.6195L75.5687 66.631V66.8479L80.7479 69.8392V69.6195Z" fill="#E6E6E6"/>
<path d="M87.3754 64.7962L80.7479 68.6243V69.6195L87.3754 65.7943V64.7962Z" fill="#E6E6E6"/>
<path d="M80.7479 69.6195L87.2225 65.8832L87.2197 66.1028L80.7479 69.8392V69.6195Z" fill="#E0E0E0"/>
<path d="M79.0437 69.222L77.284 68.2073C77.2089 68.1628 77.1478 68.2073 77.1478 68.2879V69.3332C77.1502 69.3809 77.1638 69.4274 77.1875 69.4689C77.2111 69.5105 77.2442 69.5459 77.284 69.5723L79.0548 70.5925C79.1299 70.637 79.1911 70.5925 79.1911 70.5147V69.4694C79.1892 69.4191 79.1747 69.3701 79.149 69.3269C79.1233 69.2837 79.087 69.2476 79.0437 69.222Z" fill="#EBEBEB"/>
<path d="M78.9297 69.3471L77.3868 68.4575C77.3368 68.4269 77.2951 68.4575 77.2951 68.5103V69.2943C77.2969 69.326 77.3061 69.3569 77.3221 69.3845C77.338 69.412 77.3602 69.4354 77.3868 69.4527L78.9297 70.3451C78.9798 70.3729 79.0215 70.3451 79.0215 70.2923V69.5C79.0186 69.4693 79.0089 69.4396 78.993 69.4131C78.9772 69.3866 78.9555 69.3641 78.9297 69.3471Z" fill="#FAFAFA"/>
<path d="M75.8467 69.7808L80.7479 72.6108L86.9417 69.0302L87.0918 69.1219L80.7479 72.7721L75.6966 69.8697L75.8467 69.7808Z" fill="#E0E0E0"/>
<path opacity="0.5" d="M75.8467 69.7808L80.7479 72.6108L86.9417 69.0302L87.0918 69.1219L80.7479 72.7721L75.6966 69.8697L75.8467 69.7808Z" fill="#E0E0E0"/>
<path d="M17.842 93.244L24.0331 89.6717V76.3972L17.842 79.9695V93.244Z" fill="#263238"/>
<path d="M17.8421 79.9695L8.99887 74.8654V88.1399L17.8421 93.244V79.9695Z" fill="#37474F"/>
<path d="M8.99887 74.8654L17.8421 79.9695L24.0331 76.3972L15.1899 71.2903L8.99887 74.8654Z" fill="#455A64"/>
<path d="M17.122 86.7026L10.0469 82.6188V87.5339L9.8829 87.6284L16.958 91.7122L17.122 91.6177V86.7026Z" fill="#263238"/>
<path d="M16.958 86.7972L9.8829 82.7106V87.6284L16.958 91.7122V86.7972Z" fill="#455A64"/>
<path d="M14.178 86.0271L12.9826 85.346C12.8269 85.2543 12.7046 85.296 12.7046 85.4377C12.7151 85.5241 12.7457 85.6069 12.794 85.6793C12.8423 85.7518 12.9069 85.8118 12.9826 85.8547L14.1864 86.5497C14.342 86.6415 14.4644 86.5998 14.4644 86.458C14.4551 86.3683 14.4242 86.2823 14.3744 86.2072C14.3245 86.1321 14.2571 86.0703 14.178 86.0271Z" fill="#263238"/>
<path d="M17.122 80.7673L10.0469 76.6835V81.5986L9.8829 81.6931L16.958 85.7769L17.122 85.6824V80.7673Z" fill="#263238"/>
<path d="M16.958 80.8619L9.8829 76.778V81.6931L16.958 85.7769V80.8619Z" fill="#455A64"/>
<path d="M14.178 80.0946L12.9743 79.3996C12.8186 79.3078 12.6963 79.3495 12.6963 79.4913C12.7067 79.5777 12.7373 79.6605 12.7856 79.7329C12.8339 79.8053 12.8985 79.8654 12.9743 79.9083L14.178 80.6033C14.3337 80.6951 14.456 80.6533 14.456 80.5116C14.4455 80.4252 14.4149 80.3424 14.3666 80.27C14.3184 80.1975 14.2537 80.1375 14.178 80.0946Z" fill="#263238"/>
<path d="M121.158 93.244L114.967 89.6717V76.3972L121.158 79.9695V93.244Z" fill="#FDD70D"/>
<g opacity="0.2">
<path d="M121.158 93.244L114.967 89.6717V76.3972L121.158 79.9695V93.244Z" fill="black"/>
</g>
<path d="M121.158 79.9695L130.001 74.8654V88.1399L121.158 93.244V79.9695Z" fill="#FDD70D"/>
<path d="M130.001 74.8654L121.158 79.9695L114.967 76.3972L123.81 71.2903L130.001 74.8654Z" fill="#FDD70D"/>
<g opacity="0.4">
<path d="M130.001 74.8654L121.158 79.9695L114.967 76.3972L123.81 71.2903L130.001 74.8654Z" fill="white"/>
</g>
<path d="M121.881 86.7026L128.953 82.6188V87.5339L129.114 87.6284L122.042 91.7122L121.878 91.6177L121.881 86.7026Z" fill="#FDD70D"/>
<g opacity="0.1">
<path d="M121.881 86.7026L128.953 82.6188V87.5339L129.114 87.6284L122.042 91.7122L121.878 91.6177L121.881 86.7026Z" fill="black"/>
</g>
<path d="M122.042 86.7972L129.117 82.7106L129.114 87.6284L122.042 91.7122V86.7972Z" fill="#FDD70D"/>
<g opacity="0.4">
<path d="M122.042 86.7972L129.117 82.7106L129.114 87.6284L122.042 91.7122V86.7972Z" fill="white"/>
</g>
<path d="M124.822 86.0271L126.017 85.346C126.173 85.2543 126.295 85.296 126.295 85.4377C126.285 85.5241 126.254 85.6069 126.206 85.6793C126.158 85.7518 126.093 85.8118 126.017 85.8547L124.814 86.5497C124.658 86.6415 124.536 86.5998 124.536 86.458C124.545 86.3683 124.576 86.2823 124.626 86.2072C124.676 86.1321 124.743 86.0703 124.822 86.0271Z" fill="#FDD70D"/>
<g opacity="0.1">
<path d="M124.822 86.0271L126.017 85.346C126.173 85.2543 126.295 85.296 126.295 85.4377C126.285 85.5241 126.254 85.6069 126.206 85.6793C126.158 85.7518 126.093 85.8118 126.017 85.8547L124.814 86.5497C124.658 86.6415 124.536 86.5998 124.536 86.458C124.545 86.3683 124.576 86.2823 124.626 86.2072C124.676 86.1321 124.743 86.0703 124.822 86.0271Z" fill="black"/>
</g>
<path d="M121.881 80.7673L128.953 76.6835V81.5986L129.114 81.6931L122.042 85.7769L121.878 85.6824L121.881 80.7673Z" fill="#FDD70D"/>
<g opacity="0.1">
<path d="M121.881 80.7673L128.953 76.6835V81.5986L129.114 81.6931L122.042 85.7769L121.878 85.6824L121.881 80.7673Z" fill="black"/>
</g>
<path d="M122.042 80.8619L129.117 76.778L129.114 81.6931L122.042 85.7769V80.8619Z" fill="#FDD70D"/>
<g opacity="0.4">
<path d="M122.042 80.8619L129.117 76.778L129.114 81.6931L122.042 85.7769V80.8619Z" fill="white"/>
</g>
<path d="M124.822 80.0946L126.026 79.3996C126.181 79.3078 126.304 79.3495 126.304 79.4913C126.293 79.5777 126.263 79.6605 126.214 79.7329C126.166 79.8053 126.101 79.8654 126.026 79.9083L124.822 80.6033C124.666 80.6951 124.544 80.6533 124.544 80.5116C124.554 80.4252 124.585 80.3424 124.633 80.27C124.682 80.1975 124.746 80.1375 124.822 80.0946Z" fill="#FDD70D"/>
<g opacity="0.1">
<path d="M124.822 80.0946L126.026 79.3996C126.181 79.3078 126.304 79.3495 126.304 79.4913C126.293 79.5777 126.263 79.6605 126.214 79.7329C126.166 79.8053 126.101 79.8654 126.026 79.9083L124.822 80.6033C124.666 80.6951 124.544 80.6533 124.544 80.5116C124.554 80.4252 124.585 80.3424 124.633 80.27C124.682 80.1975 124.746 80.1375 124.822 80.0946Z" fill="black"/>
</g>
<path d="M84.6732 76.1053L113.613 92.8159L115.373 93.8306L115.453 93.8723C115.501 93.8958 115.55 93.9153 115.601 93.9307C115.66 93.9541 115.721 93.9709 115.784 93.9807C115.824 93.991 115.865 93.9985 115.907 94.0029C115.915 94.0059 115.923 94.0059 115.932 94.0029C115.983 94.0058 116.035 94.0058 116.087 94.0029C116.247 94.0092 116.406 93.9747 116.549 93.9029C116.891 93.6473 117.126 93.2738 117.208 92.8548L122.084 67.5179C122.095 67.463 122.1 67.4071 122.1 67.3511C122.104 67.3058 122.104 67.2602 122.1 67.2149C122.091 67.1451 122.075 67.0762 122.053 67.0091C122.028 66.941 121.999 66.8742 121.967 66.809L121.895 66.6894C121.864 66.6468 121.83 66.6059 121.795 66.5671C121.763 66.5335 121.73 66.5019 121.694 66.4726C121.657 66.4432 121.618 66.4163 121.578 66.392L90.8699 48.675C90.8439 48.6595 90.8169 48.6456 90.7892 48.6333L90.7031 48.5944C90.6898 48.5881 90.6758 48.5835 90.6614 48.5805C90.6245 48.5752 90.587 48.5752 90.5502 48.5805C90.3481 48.6234 90.1582 48.7108 89.9942 48.8363L89.3131 49.2366C89.2605 49.2576 89.2138 49.291 89.1768 49.3339C89.1193 49.3926 89.0765 49.464 89.0517 49.5424C89.039 49.5766 89.0297 49.612 89.0239 49.648L84.145 74.9822C84.1162 75.2003 84.1507 75.4221 84.2443 75.6213C84.3379 75.8204 84.4868 75.9884 84.6732 76.1053Z" fill="#FDD70D"/>
<path d="M84.6732 76.1053L113.613 92.8159L115.373 93.8306L115.453 93.8723C115.501 93.8958 115.55 93.9153 115.601 93.9307C115.66 93.9541 115.721 93.9709 115.784 93.9807C115.824 93.991 115.865 93.9985 115.907 94.0029C115.915 94.0059 115.923 94.0059 115.932 94.0029C115.983 94.0058 116.035 94.0058 116.087 94.0029C116.247 94.0092 116.406 93.9747 116.549 93.9029C116.891 93.6473 117.126 93.2738 117.208 92.8548L122.084 67.5179C122.095 67.463 122.1 67.4071 122.1 67.3511C122.104 67.3058 122.104 67.2602 122.1 67.2149C122.091 67.1451 122.075 67.0762 122.053 67.0091C122.028 66.941 121.999 66.8742 121.967 66.809L121.895 66.6894C121.864 66.6468 121.83 66.6059 121.795 66.5671C121.763 66.5335 121.73 66.5019 121.694 66.4726C121.657 66.4432 121.618 66.4163 121.578 66.392L90.8699 48.675C90.8439 48.6595 90.8169 48.6456 90.7892 48.6333L90.7031 48.5944C90.6898 48.5881 90.6758 48.5835 90.6614 48.5805C90.6245 48.5752 90.587 48.5752 90.5502 48.5805C90.3481 48.6234 90.1582 48.7108 89.9942 48.8363L89.3131 49.2366C89.2605 49.2576 89.2138 49.291 89.1768 49.3339C89.1193 49.3926 89.0765 49.464 89.0517 49.5424C89.039 49.5766 89.0297 49.612 89.0239 49.648L84.145 74.9822C84.1162 75.2003 84.1507 75.4221 84.2443 75.6213C84.3379 75.8204 84.4868 75.9884 84.6732 76.1053Z" fill="#FDD70D"/>
<path d="M115.453 93.8723C115.622 93.9585 115.807 94.0069 115.996 94.0141C116.186 94.0213 116.374 93.9871 116.549 93.914C116.891 93.6584 117.126 93.2849 117.208 92.8659L122.084 67.529C122.122 67.2832 122.077 67.0317 121.956 66.8145L120.93 67.4094C121.051 67.6267 121.097 67.8779 121.061 68.1239L116.176 93.4636C116.169 93.5451 116.142 93.6236 116.098 93.6924C116.054 93.7612 115.994 93.8182 115.922 93.8585C115.851 93.8987 115.771 93.921 115.69 93.9234C115.608 93.9258 115.527 93.9083 115.453 93.8723Z" fill="#263238"/>
<path d="M90.0053 48.8252L89.3242 49.2255C89.4068 49.1893 89.4971 49.1744 89.587 49.1822C89.6768 49.19 89.7633 49.2201 89.8385 49.27L120.535 66.998C120.7 67.0981 120.833 67.2414 120.922 67.4122L121.956 66.8173L121.884 66.6978C121.853 66.6551 121.819 66.6143 121.783 66.5755C121.72 66.5074 121.647 66.4484 121.567 66.4003L90.8698 48.675C90.8165 48.6437 90.7607 48.6168 90.703 48.5944C90.6897 48.5881 90.6757 48.5835 90.6613 48.5805C90.6245 48.5752 90.587 48.5752 90.5501 48.5805C90.3529 48.6216 90.167 48.7051 90.0053 48.8252Z" fill="#37474F"/>
<path opacity="0.5" d="M90.0053 48.8252L89.3242 49.2255C89.4068 49.1893 89.4971 49.1744 89.587 49.1822C89.6768 49.19 89.7633 49.2201 89.8385 49.27L120.535 66.998C120.7 67.0981 120.833 67.2414 120.922 67.4122L121.956 66.8173L121.884 66.6978C121.853 66.6551 121.819 66.6143 121.783 66.5755C121.72 66.5074 121.647 66.4484 121.567 66.4003L90.8698 48.675C90.8165 48.6437 90.7607 48.6168 90.703 48.5944C90.6897 48.5881 90.6757 48.5835 90.6613 48.5805C90.6245 48.5752 90.587 48.5752 90.5501 48.5805C90.3529 48.6216 90.167 48.7051 90.0053 48.8252Z" fill="#455A64"/>
<path d="M116.176 93.4608L121.052 68.1267C121.084 67.9084 121.051 67.6857 120.96 67.4851C120.868 67.2845 120.721 67.1145 120.535 66.9952L89.8385 49.2727C89.7656 49.2197 89.68 49.187 89.5904 49.1779C89.5007 49.1688 89.4103 49.1837 89.3283 49.221C89.2463 49.2583 89.1757 49.3168 89.1237 49.3903C89.0717 49.4639 89.0401 49.5499 89.0323 49.6397L84.1561 74.9766C84.1249 75.1949 84.157 75.4176 84.2486 75.6182C84.3403 75.8188 84.4877 75.9888 84.6732 76.1081L115.37 93.8306C115.443 93.8828 115.529 93.9147 115.619 93.9232C115.708 93.9317 115.798 93.9164 115.88 93.8789C115.962 93.8414 116.032 93.783 116.084 93.7096C116.136 93.6362 116.168 93.5504 116.176 93.4608Z" fill="#FDD70D"/>
<path d="M116.176 93.4608L121.052 68.1267C121.084 67.9084 121.051 67.6857 120.96 67.4851C120.868 67.2845 120.721 67.1145 120.535 66.9952L89.8385 49.2727C89.7656 49.2197 89.68 49.187 89.5904 49.1779C89.5007 49.1688 89.4103 49.1837 89.3283 49.221C89.2463 49.2583 89.1757 49.3168 89.1237 49.3903C89.0717 49.4639 89.0401 49.5499 89.0323 49.6397L84.1561 74.9766C84.1249 75.1949 84.157 75.4176 84.2486 75.6182C84.3403 75.8188 84.4877 75.9888 84.6732 76.1081L115.37 93.8306C115.443 93.8828 115.529 93.9147 115.619 93.9232C115.708 93.9317 115.798 93.9164 115.88 93.8789C115.962 93.8414 116.032 93.783 116.084 93.7096C116.136 93.6362 116.168 93.5504 116.176 93.4608Z" fill="#37474F"/>
<path opacity="0.5" d="M116.176 93.4608L121.052 68.1267C121.084 67.9084 121.051 67.6857 120.96 67.4851C120.868 67.2845 120.721 67.1145 120.535 66.9952L89.8385 49.2727C89.7656 49.2197 89.68 49.187 89.5904 49.1779C89.5007 49.1688 89.4103 49.1837 89.3283 49.221C89.2463 49.2583 89.1757 49.3168 89.1237 49.3903C89.0717 49.4639 89.0401 49.5499 89.0323 49.6397L84.1561 74.9766C84.1249 75.1949 84.157 75.4176 84.2486 75.6182C84.3403 75.8188 84.4877 75.9888 84.6732 76.1081L115.37 93.8306C115.443 93.8828 115.529 93.9147 115.619 93.9232C115.708 93.9317 115.798 93.9164 115.88 93.8789C115.962 93.8414 116.032 93.783 116.084 93.7096C116.136 93.6362 116.168 93.5504 116.176 93.4608Z" fill="#263238"/>
<path d="M92.9048 75.0822L113.724 87.103L114.989 87.8341L115.048 87.8647C115.082 87.881 115.117 87.8949 115.153 87.9064C115.196 87.9226 115.241 87.9347 115.287 87.9425C115.315 87.9498 115.344 87.9545 115.373 87.9564C115.376 87.9577 115.379 87.9584 115.383 87.9584C115.386 87.9584 115.389 87.9577 115.392 87.9564C115.429 87.9592 115.466 87.9592 115.503 87.9564C115.619 87.9599 115.734 87.9341 115.837 87.8814C116.082 87.6973 116.251 87.4289 116.31 87.128L119.818 68.9134C119.822 68.8737 119.822 68.8336 119.818 68.7939C119.821 68.7606 119.821 68.7271 119.818 68.6938C119.812 68.6427 119.801 68.5923 119.785 68.5437C119.767 68.4952 119.747 68.4479 119.723 68.4019C119.707 68.3741 119.69 68.3435 119.671 68.3157C119.65 68.2846 119.625 68.2557 119.598 68.2295C119.578 68.2029 119.553 68.1795 119.526 68.16C119.501 68.1388 119.474 68.1193 119.445 68.1017L97.3639 55.3498L97.3 55.322L97.236 55.2942C97.2268 55.2926 97.2174 55.2926 97.2083 55.2942C97.1815 55.2903 97.1544 55.2903 97.1276 55.2942C96.9848 55.3266 96.851 55.3902 96.7356 55.4805L96.2464 55.7585C96.2083 55.7739 96.1741 55.7977 96.1463 55.828C96.1056 55.8706 96.0751 55.9219 96.0573 55.9781C96.0489 56.0026 96.0424 56.0277 96.0379 56.0531L92.5295 74.2816C92.5107 74.4368 92.536 74.5942 92.6023 74.7358C92.6687 74.8773 92.7735 74.9974 92.9048 75.0822Z" fill="#FDD70D"/>
<path d="M92.9048 75.0822L113.724 87.103L114.989 87.8341L115.048 87.8647C115.082 87.881 115.117 87.8949 115.153 87.9064C115.196 87.9226 115.241 87.9347 115.287 87.9425C115.315 87.9498 115.344 87.9545 115.373 87.9564C115.376 87.9577 115.379 87.9584 115.383 87.9584C115.386 87.9584 115.389 87.9577 115.392 87.9564C115.429 87.9592 115.466 87.9592 115.503 87.9564C115.619 87.9599 115.734 87.9341 115.837 87.8814C116.082 87.6973 116.251 87.4289 116.31 87.128L119.818 68.9134C119.822 68.8737 119.822 68.8336 119.818 68.7939C119.821 68.7606 119.821 68.7271 119.818 68.6938C119.812 68.6427 119.801 68.5923 119.785 68.5437C119.767 68.4952 119.747 68.4479 119.723 68.4019C119.707 68.3741 119.69 68.3435 119.671 68.3157C119.65 68.2846 119.625 68.2557 119.598 68.2295C119.578 68.2029 119.553 68.1795 119.526 68.16C119.501 68.1388 119.474 68.1193 119.445 68.1017L97.3639 55.3498L97.3 55.322L97.236 55.2942C97.2268 55.2926 97.2174 55.2926 97.2083 55.2942C97.1815 55.2903 97.1544 55.2903 97.1276 55.2942C96.9848 55.3266 96.851 55.3902 96.7356 55.4805L96.2464 55.7585C96.2083 55.7739 96.1741 55.7977 96.1463 55.828C96.1056 55.8706 96.0751 55.9219 96.0573 55.9781C96.0489 56.0026 96.0424 56.0277 96.0379 56.0531L92.5295 74.2816C92.5107 74.4368 92.536 74.5942 92.6023 74.7358C92.6687 74.8773 92.7735 74.9974 92.9048 75.0822Z" fill="#FDD70D"/>
<path d="M115.048 87.8647C115.169 87.9264 115.303 87.9608 115.439 87.9656C115.576 87.9704 115.711 87.9454 115.837 87.8925C116.082 87.7084 116.251 87.44 116.31 87.1391L119.818 68.9134C119.843 68.7366 119.811 68.5563 119.726 68.3991L118.984 68.8272C119.072 68.9834 119.105 69.1644 119.079 69.3415L115.567 87.57C115.563 87.6287 115.543 87.6854 115.512 87.735C115.48 87.7847 115.437 87.8258 115.385 87.8549C115.334 87.8839 115.277 87.9 115.218 87.9017C115.159 87.9034 115.1 87.8907 115.048 87.8647Z" fill="#E0E0E0"/>
<path d="M96.744 55.4582L96.2547 55.7362C96.3136 55.7098 96.3783 55.6989 96.4426 55.7048C96.5068 55.7106 96.5685 55.7329 96.6217 55.7696L118.706 68.5298C118.825 68.6001 118.922 68.7034 118.984 68.8272L119.729 68.3991C119.712 68.3713 119.696 68.3407 119.676 68.3129C119.655 68.2818 119.631 68.2529 119.604 68.2268C119.56 68.1767 119.508 68.1336 119.451 68.0989L97.3639 55.3498C97.3245 55.3276 97.2837 55.3081 97.2416 55.2914C97.2324 55.2898 97.223 55.2898 97.2138 55.2914C97.1871 55.2875 97.1599 55.2875 97.1332 55.2914C96.993 55.3184 96.8602 55.3753 96.744 55.4582Z" fill="#FAFAFA"/>
<path d="M115.567 87.57L119.076 69.3415C119.097 69.1848 119.073 69.0253 119.007 68.8816C118.941 68.7379 118.836 68.6159 118.703 68.5298L96.6217 55.7779C96.5682 55.7394 96.5054 55.716 96.4397 55.7101C96.3741 55.7042 96.3081 55.7162 96.2487 55.7446C96.1892 55.773 96.1386 55.8169 96.102 55.8717C96.0653 55.9265 96.0442 55.9901 96.0406 56.0559L92.535 74.2844C92.5135 74.4408 92.5368 74.6002 92.6023 74.7439C92.6677 74.8876 92.7726 75.0097 92.9048 75.0962L114.989 87.848C115.043 87.8858 115.105 87.9086 115.17 87.9141C115.236 87.9196 115.301 87.9075 115.36 87.8791C115.419 87.8508 115.469 87.8072 115.506 87.7528C115.542 87.6985 115.563 87.6353 115.567 87.57Z" fill="#F5F5F5"/>
<path d="M99.246 69.7224C99.3291 69.6655 99.3976 69.5898 99.446 69.5014C99.4943 69.413 99.521 69.3144 99.524 69.2137V36.0677C99.5187 35.9635 99.4887 35.862 99.4365 35.7716C99.3843 35.6812 99.3114 35.6045 99.2237 35.5479L78.396 23.5271C78.3096 23.4699 78.2089 23.438 78.1053 23.4349C78.0018 23.4319 77.8994 23.4578 77.8098 23.5099C77.7202 23.5619 77.6469 23.6379 77.5982 23.7294C77.5495 23.8209 77.5273 23.9242 77.5342 24.0275V57.1735C77.5395 57.2777 77.5695 57.3792 77.6217 57.4696C77.6739 57.56 77.7468 57.6367 77.8344 57.6934L98.6483 69.7141C98.7398 69.7636 98.842 69.7902 98.9461 69.7917C99.0502 69.7931 99.1531 69.7694 99.246 69.7224Z" fill="#EBEBEB"/>
<path d="M77.537 23.9748C77.5648 23.8219 77.6871 23.769 77.8372 23.8552L98.6538 35.862C98.7429 35.9171 98.8158 35.9948 98.8651 36.0872L99.4211 35.762C99.3694 35.6697 99.2959 35.5915 99.2071 35.534L78.396 23.53C78.3055 23.4841 78.2055 23.4601 78.1041 23.4601C78.0026 23.4601 77.9026 23.4841 77.8122 23.53C77.739 23.5821 77.677 23.6483 77.6298 23.7246C77.5825 23.801 77.551 23.8861 77.537 23.9748Z" fill="#FAFAFA"/>
<path d="M98.69 69.7335C98.775 69.7727 98.8674 69.793 98.961 69.793C99.0546 69.793 99.1471 69.7727 99.2321 69.7335C99.3152 69.6766 99.3837 69.6009 99.432 69.5125C99.4804 69.4241 99.5071 69.3255 99.5101 69.2248V36.0677C99.5065 35.9638 99.4769 35.8625 99.4239 35.773L98.8679 36.0983C98.9229 36.187 98.9536 36.2887 98.9568 36.393V69.5389C98.968 69.7141 98.8373 69.7975 98.69 69.7335Z" fill="#E0E0E0"/>
<path d="M98.651 69.7141L77.84 57.6934C77.7523 57.6367 77.6794 57.56 77.6272 57.4696C77.575 57.3792 77.545 57.2777 77.5397 57.1735V24.0276C77.5397 23.8357 77.6732 23.7496 77.84 23.8552L98.651 35.862C98.7387 35.9187 98.8116 35.9954 98.8638 36.0858C98.916 36.1761 98.946 36.2776 98.9513 36.3819V69.5389C98.9513 69.7308 98.8178 69.8086 98.651 69.7141Z" fill="#F5F5F5"/>
<g opacity="0.3">
<path d="M97.4334 50.9713C97.4334 51.2271 97.2027 51.3021 96.9219 51.1381L79.5664 41.1301C79.4288 41.0518 79.3111 40.9428 79.2224 40.8117C79.1337 40.6806 79.0763 40.5308 79.0548 40.3739C79.0548 40.1182 79.2856 40.0431 79.5664 40.2072L96.9219 50.2152C97.0595 50.2935 97.1772 50.4024 97.2659 50.5336C97.3546 50.6647 97.4119 50.8145 97.4334 50.9713Z" fill="#455A64"/>
<path d="M97.4334 53.7402C97.4334 53.9932 97.2027 54.0682 96.9219 53.907L79.5664 43.899C79.4284 43.8212 79.3103 43.7124 79.2216 43.5811C79.1328 43.4499 79.0757 43.2999 79.0548 43.1428C79.0548 42.8871 79.2856 42.8148 79.5664 42.976L96.9219 52.9979C97.0582 53.0744 97.1752 53.181 97.2638 53.3097C97.3525 53.4384 97.4105 53.5856 97.4334 53.7402Z" fill="#455A64"/>
<path d="M97.4334 56.5063C97.4334 56.762 97.2027 56.8371 96.9219 56.6731L79.5664 46.6651C79.4288 46.5868 79.3111 46.4778 79.2224 46.3467C79.1337 46.2156 79.0763 46.0658 79.0548 45.9089C79.0548 45.6532 79.2856 45.5781 79.5664 45.7421L96.9219 55.7501C97.0595 55.8285 97.1772 55.9374 97.2659 56.0685C97.3546 56.1997 97.4119 56.3494 97.4334 56.5063Z" fill="#455A64"/>
<path d="M97.4334 59.2752C97.4334 59.5309 97.2027 59.6032 96.9219 59.442L79.5664 49.434C79.4284 49.3561 79.3103 49.2473 79.2216 49.1161C79.1328 48.9849 79.0757 48.8348 79.0548 48.6778C79.0548 48.4248 79.2856 48.3498 79.5664 48.511L96.9219 58.5329C97.0582 58.6093 97.1752 58.716 97.2638 58.8447C97.3525 58.9733 97.4105 59.1206 97.4334 59.2752Z" fill="#455A64"/>
<path d="M97.4334 42.6674C97.4334 42.9232 97.2027 42.9983 96.9219 42.8342L79.5664 32.8262C79.4288 32.7479 79.3111 32.639 79.2224 32.5078C79.1337 32.3767 79.0763 32.2269 79.0548 32.0701C79.0548 31.8143 79.2856 31.7393 79.5664 31.9033L96.9219 41.9113C97.0595 41.9896 97.1772 42.0986 97.2659 42.2297C97.3546 42.3608 97.4119 42.5106 97.4334 42.6674Z" fill="#455A64"/>
<path d="M97.4334 45.4363C97.4334 45.6921 97.2027 45.7644 96.9219 45.6031L79.5664 35.5951C79.4284 35.5173 79.3103 35.4085 79.2216 35.2773C79.1328 35.146 79.0757 34.996 79.0548 34.839C79.0548 34.586 79.2856 34.5109 79.5664 34.6749L96.9219 44.6829C97.0593 44.7608 97.1769 44.8693 97.2656 44.9999C97.3543 45.1306 97.4117 45.2799 97.4334 45.4363Z" fill="#455A64"/>
<path d="M97.4334 39.9041C97.4334 40.1599 97.2027 40.2349 96.9219 40.0709L79.5664 30.0629C79.4288 29.9846 79.3111 29.8757 79.2224 29.7445C79.1337 29.6134 79.0763 29.4636 79.0548 29.3068C79.0548 29.051 79.2856 28.9759 79.5664 29.14L96.9219 39.148C97.0595 39.2263 97.1772 39.3352 97.2659 39.4664C97.3546 39.5975 97.4119 39.7473 97.4334 39.9041Z" fill="#455A64"/>
<path d="M97.4334 48.2052C97.4334 48.4582 97.2027 48.5332 96.9219 48.3692L79.5664 38.3612C79.4286 38.2831 79.3108 38.1742 79.2221 38.043C79.1334 37.9118 79.0761 37.762 79.0548 37.6051C79.0548 37.3493 79.2856 37.2742 79.5664 37.4383L96.9219 47.4463C97.0598 47.5249 97.1777 47.6342 97.2665 47.7659C97.3552 47.8975 97.4123 48.0479 97.4334 48.2052Z" fill="#455A64"/>
<path d="M97.4334 62.0441C97.4334 62.297 97.2027 62.3721 96.9219 62.2081L79.5664 52.2001C79.4288 52.1217 79.3111 52.0128 79.2224 51.8817C79.1337 51.7505 79.0763 51.6008 79.0548 51.4439C79.0548 51.1882 79.2856 51.1131 79.5664 51.2771L96.9219 61.2851C97.0598 61.3637 97.1777 61.4731 97.2665 61.6047C97.3552 61.7364 97.4123 61.8867 97.4334 62.0441Z" fill="#455A64"/>
<path d="M97.4334 64.8102C97.4334 65.0659 97.2027 65.141 96.9219 64.977L79.5664 54.969C79.4284 54.8911 79.3103 54.7823 79.2216 54.6511C79.1328 54.5199 79.0757 54.3698 79.0548 54.2128C79.0548 53.9598 79.2856 53.8848 79.5664 54.0488L96.9219 64.0568C97.0593 64.1347 97.1769 64.2431 97.2656 64.3738C97.3543 64.5044 97.4117 64.6537 97.4334 64.8102Z" fill="#455A64"/>
</g>
<path d="M83.4333 51.9999C83.4253 51.9175 83.4385 51.8344 83.4716 51.7585C83.5047 51.6827 83.5566 51.6165 83.6224 51.5662C83.6372 51.5547 83.653 51.5444 83.6696 51.5356L84.6649 50.9574C84.7427 50.922 84.8285 50.908 84.9135 50.9168C84.9985 50.9256 85.0797 50.9569 85.1486 51.0074L105.045 62.4805L105.626 60.1425C105.668 59.9852 105.767 59.8492 105.904 59.7617L106.938 59.1584C107.035 59.1038 107.144 59.0765 107.255 59.0794C107.365 59.0823 107.473 59.1154 107.567 59.1751L116.032 64.0595C116.232 64.19 116.399 64.3661 116.519 64.5733C116.639 64.7806 116.708 65.0131 116.721 65.2522V93.4831C116.729 93.5652 116.716 93.648 116.684 93.7239C116.651 93.7997 116.6 93.866 116.535 93.9167L115.47 94.5367C115.393 94.567 115.31 94.5775 115.228 94.5673C115.146 94.5571 115.067 94.5265 115 94.4783L84.1089 76.639C83.9082 76.5085 83.7412 76.3325 83.6214 76.1253C83.5016 75.918 83.4324 75.6855 83.4194 75.4464L83.4333 51.9999Z" fill="#FDD70D"/>
<path d="M105.918 59.7505C106.014 59.6997 106.122 59.6755 106.23 59.6804C106.339 59.6852 106.444 59.7191 106.535 59.7783L115.009 64.6628C115.211 64.7913 115.378 64.968 115.495 65.1771L116.526 64.5766C116.411 64.3661 116.244 64.1889 116.04 64.0623L107.586 59.1779C107.492 59.1182 107.384 59.0852 107.273 59.0823C107.162 59.0793 107.052 59.1066 106.955 59.1612L105.918 59.7505Z" fill="#455A64"/>
<path d="M83.678 51.5357C83.7536 51.5118 83.8337 51.5055 83.9122 51.517C83.9907 51.5286 84.0655 51.5578 84.1311 51.6024L104.039 63.106C104.119 63.1597 104.212 63.1931 104.309 63.2032C104.405 63.2133 104.503 63.1999 104.593 63.1641C104.683 63.1283 104.763 63.0712 104.826 62.9977C104.89 62.9241 104.934 62.8363 104.956 62.7418L105.048 62.4916L85.1542 51.0158C85.0622 50.9586 84.9566 50.9269 84.8484 50.9241C84.7862 50.9236 84.725 50.9389 84.6704 50.9685L83.678 51.5357Z" fill="#455A64"/>
<path d="M83.4333 52.0027L83.4194 75.4464C83.4324 75.6855 83.5016 75.918 83.6214 76.1253C83.7412 76.3325 83.9082 76.5086 84.1089 76.639L115.092 94.52C115.154 94.5557 115.224 94.5745 115.295 94.5744C115.367 94.5743 115.437 94.5554 115.499 94.5196C115.56 94.4838 115.611 94.4324 115.647 94.3704C115.683 94.3085 115.701 94.2383 115.701 94.167V65.8554C115.693 65.6168 115.624 65.3841 115.501 65.1799C115.384 64.9709 115.216 64.7941 115.014 64.6656L106.546 59.77C106.455 59.7116 106.35 59.6782 106.241 59.6733C106.133 59.6684 106.025 59.6922 105.929 59.7422H105.91C105.772 59.8293 105.673 59.9655 105.632 60.1231L105.051 62.4583L104.959 62.7112C104.937 62.8058 104.892 62.8935 104.829 62.9671C104.766 63.0406 104.686 63.0977 104.596 63.1335C104.505 63.1693 104.408 63.1827 104.311 63.1726C104.215 63.1625 104.122 63.1291 104.041 63.0754L84.1228 51.6051C84.058 51.56 83.9836 51.5305 83.9054 51.5189C83.8273 51.5073 83.7475 51.514 83.6724 51.5384L83.6446 51.5551H83.6279C83.5594 51.6063 83.5054 51.6746 83.4712 51.7531C83.4371 51.8316 83.424 51.9176 83.4333 52.0027Z" fill="#37474F"/>
<path d="M97.8727 74.5346C97.9513 74.4982 98.0411 74.4941 98.1227 74.5232C98.2043 74.5523 98.2712 74.6123 98.3091 74.6903L99.2321 76.6363V73.1752C99.2279 73.1297 99.2332 73.0839 99.2477 73.0407C99.2622 72.9974 99.2856 72.9577 99.3163 72.924C99.3471 72.8903 99.3845 72.8633 99.4262 72.8449C99.468 72.8265 99.5131 72.817 99.5587 72.817C99.6043 72.817 99.6495 72.8265 99.6912 72.8449C99.7329 72.8633 99.7704 72.8903 99.8011 72.924C99.8319 72.9577 99.8552 72.9974 99.8697 73.0407C99.8842 73.0839 99.8896 73.1297 99.8854 73.1752V77.3452L100.881 76.3888C100.911 76.3581 100.947 76.3336 100.986 76.3169C101.026 76.3002 101.068 76.2916 101.111 76.2916C101.154 76.2916 101.197 76.3002 101.237 76.3169C101.276 76.3336 101.312 76.3581 101.342 76.3888C101.403 76.4503 101.437 76.5332 101.437 76.6196C101.437 76.706 101.403 76.7889 101.342 76.8503L99.7964 78.3376C99.76 78.3726 99.7158 78.3986 99.6676 78.4135C99.6193 78.4285 99.5683 78.432 99.5184 78.4238C99.4676 78.4144 99.4197 78.3928 99.3791 78.3608C99.3384 78.3289 99.3061 78.2875 99.2849 78.2403L97.7364 74.9683C97.6987 74.8924 97.6919 74.8048 97.7173 74.724C97.7426 74.6432 97.7983 74.5753 97.8727 74.5346Z" fill="#FDD70D"/>
<path d="M101.781 75.2768C101.738 75.2772 101.696 75.2691 101.656 75.2529C101.616 75.2367 101.58 75.2128 101.55 75.1826C101.519 75.1523 101.495 75.1163 101.478 75.0767C101.462 75.0371 101.453 74.9945 101.453 74.9516V72.9833L97.6642 70.7955V72.3884C97.6642 72.4747 97.6299 72.5574 97.5689 72.6184C97.5079 72.6794 97.4252 72.7137 97.3389 72.7137C97.2526 72.7137 97.1699 72.6794 97.1089 72.6184C97.0479 72.5574 97.0136 72.4747 97.0136 72.3884V70.2311C97.0139 70.1748 97.0289 70.1194 97.0572 70.0706C97.0855 70.0218 97.126 69.9813 97.1749 69.9531C97.2245 69.9237 97.2812 69.9083 97.3389 69.9087C97.3966 69.9086 97.4532 69.9239 97.5029 69.9531L101.951 72.5163C102 72.5444 102.041 72.5848 102.07 72.6335C102.099 72.6823 102.114 72.7377 102.115 72.7943V74.9488C102.115 74.9925 102.107 75.0358 102.09 75.0761C102.074 75.1164 102.049 75.153 102.018 75.1836C101.987 75.2142 101.95 75.2383 101.909 75.2543C101.868 75.2703 101.825 75.278 101.781 75.2768Z" fill="#FDD70D"/>
<path d="M115.448 94.545C115.458 94.5475 115.468 94.5475 115.478 94.545L116.543 93.9279C116.608 93.8756 116.659 93.8082 116.691 93.7316C116.724 93.655 116.737 93.5715 116.729 93.4886V65.255C116.721 65.0151 116.652 64.7814 116.526 64.5766L115.495 65.1771C115.62 65.3819 115.69 65.6156 115.698 65.8554V94.1725C115.698 94.2525 115.675 94.3307 115.63 94.3971C115.585 94.4635 115.522 94.515 115.448 94.545Z" fill="#263238"/>
<path d="M54.3267 76.1053L25.387 92.8159L23.63 93.8306L23.5494 93.8723C23.502 93.8958 23.4527 93.9153 23.402 93.9306C23.3429 93.9541 23.2814 93.9709 23.2186 93.9807C23.1784 93.991 23.1375 93.9985 23.0962 94.0029C23.0882 94.0059 23.0793 94.0059 23.0712 94.0029C23.0194 94.0058 22.9674 94.0058 22.9155 94.0029C22.7557 94.0092 22.5969 93.9747 22.4541 93.9028C22.112 93.6473 21.8772 93.2738 21.7952 92.8548L16.9163 67.529C16.9051 67.4741 16.8996 67.4182 16.8996 67.3622C16.8955 67.3169 16.8955 67.2713 16.8996 67.226C16.9094 67.1562 16.9253 67.0873 16.9469 67.0202C16.9722 66.9521 17.001 66.8853 17.0331 66.8201L17.1053 66.7005C17.1363 66.6579 17.1697 66.617 17.2054 66.5782C17.2367 66.5446 17.2701 66.513 17.3055 66.4837C17.3426 66.4543 17.3816 66.4274 17.4223 66.4031L48.119 48.6806C48.145 48.665 48.1719 48.6511 48.1996 48.6389L48.2858 48.6C48.2991 48.5937 48.3131 48.589 48.3275 48.5861C48.3644 48.5807 48.4018 48.5807 48.4387 48.5861C48.6407 48.629 48.8307 48.7163 48.9947 48.8418L49.6758 49.2421C49.7284 49.2632 49.7751 49.2966 49.812 49.3394C49.8695 49.3981 49.9124 49.4696 49.9371 49.5479C49.9498 49.5822 49.9592 49.6175 49.9649 49.6536L54.8438 74.9877C54.8727 75.2039 54.8394 75.4238 54.7478 75.6217C54.6562 75.8196 54.5102 75.9873 54.3267 76.1053Z" fill="#FDD70D"/>
<path d="M54.3267 76.1053L25.387 92.8159L23.63 93.8306L23.5494 93.8723C23.502 93.8958 23.4527 93.9153 23.402 93.9306C23.3429 93.9541 23.2814 93.9709 23.2186 93.9807C23.1784 93.991 23.1375 93.9985 23.0962 94.0029C23.0882 94.0059 23.0793 94.0059 23.0712 94.0029C23.0194 94.0058 22.9674 94.0058 22.9155 94.0029C22.7557 94.0092 22.5969 93.9747 22.4541 93.9028C22.112 93.6473 21.8772 93.2738 21.7952 92.8548L16.9163 67.529C16.9051 67.4741 16.8996 67.4182 16.8996 67.3622C16.8955 67.3169 16.8955 67.2713 16.8996 67.226C16.9094 67.1562 16.9253 67.0873 16.9469 67.0202C16.9722 66.9521 17.001 66.8853 17.0331 66.8201L17.1053 66.7005C17.1363 66.6579 17.1697 66.617 17.2054 66.5782C17.2367 66.5446 17.2701 66.513 17.3055 66.4837C17.3426 66.4543 17.3816 66.4274 17.4223 66.4031L48.119 48.6806C48.145 48.665 48.1719 48.6511 48.1996 48.6389L48.2858 48.6C48.2991 48.5937 48.3131 48.589 48.3275 48.5861C48.3644 48.5807 48.4018 48.5807 48.4387 48.5861C48.6407 48.629 48.8307 48.7163 48.9947 48.8418L49.6758 49.2421C49.7284 49.2632 49.7751 49.2966 49.812 49.3394C49.8695 49.3981 49.9124 49.4696 49.9371 49.5479C49.9498 49.5822 49.9592 49.6175 49.9649 49.6536L54.8438 74.9877C54.8727 75.2039 54.8394 75.4238 54.7478 75.6217C54.6562 75.8196 54.5102 75.9873 54.3267 76.1053Z" fill="#FDD70D"/>
<path opacity="0.2" d="M23.5466 93.8723C23.378 93.9585 23.1927 94.0069 23.0035 94.0141C22.8143 94.0213 22.6259 93.9871 22.4513 93.914C22.1092 93.6584 21.8744 93.2849 21.7924 92.8659L16.9163 67.529C16.8778 67.2832 16.9228 67.0317 17.0442 66.8145L18.07 67.4094C17.9489 67.6267 17.903 67.8779 17.9393 68.1239L22.8238 93.4636C22.8308 93.5451 22.8576 93.6236 22.9018 93.6924C22.946 93.7612 23.0063 93.8182 23.0775 93.8585C23.1486 93.8987 23.2286 93.921 23.3103 93.9234C23.3921 93.9258 23.4732 93.9083 23.5466 93.8723Z" fill="black"/>
<path opacity="0.1" d="M48.9947 48.8252L49.6758 49.2255C49.5932 49.1893 49.5028 49.1744 49.413 49.1822C49.3231 49.19 49.2367 49.2201 49.1615 49.27L18.4647 66.998C18.2978 67.0962 18.1611 67.2385 18.07 67.4095L17.0358 66.8145L17.1081 66.695C17.1391 66.6523 17.1725 66.6115 17.2082 66.5727C17.2721 66.5046 17.345 66.4457 17.425 66.3975L48.1218 48.675C48.1751 48.6437 48.2309 48.6168 48.2886 48.5944C48.3019 48.5881 48.3159 48.5835 48.3303 48.5805C48.3672 48.5752 48.4046 48.5752 48.4415 48.5805C48.6416 48.6205 48.8305 48.704 48.9947 48.8252Z" fill="white"/>
<path d="M22.8238 93.4608L17.9477 68.1267C17.917 67.9088 17.9493 67.6867 18.041 67.4867C18.1326 67.2866 18.2797 67.117 18.4648 66.998L49.1615 49.2755C49.2344 49.2225 49.32 49.1898 49.4096 49.1807C49.4992 49.1716 49.5897 49.1865 49.6717 49.2238C49.7537 49.2611 49.8243 49.3195 49.8763 49.3931C49.9283 49.4667 49.9599 49.5527 49.9677 49.6425L54.8438 74.9794C54.8751 75.1977 54.843 75.4204 54.7513 75.621C54.6597 75.8216 54.5123 75.9916 54.3268 76.1109L23.63 93.8306C23.5567 93.8828 23.471 93.9147 23.3815 93.9232C23.2919 93.9317 23.2017 93.9164 23.1199 93.8789C23.0382 93.8414 22.9677 93.783 22.9157 93.7096C22.8637 93.6362 22.832 93.5504 22.8238 93.4608Z" fill="#FDD70D"/>
<path opacity="0.15" d="M22.8238 93.4608L17.9477 68.1267C17.917 67.9088 17.9493 67.6867 18.041 67.4867C18.1326 67.2866 18.2797 67.117 18.4648 66.998L49.1615 49.2755C49.2344 49.2225 49.32 49.1898 49.4096 49.1807C49.4992 49.1716 49.5897 49.1865 49.6717 49.2238C49.7537 49.2611 49.8243 49.3195 49.8763 49.3931C49.9283 49.4667 49.9599 49.5527 49.9677 49.6425L54.8438 74.9794C54.8751 75.1977 54.843 75.4204 54.7513 75.621C54.6597 75.8216 54.5123 75.9916 54.3268 76.1109L23.63 93.8306C23.5567 93.8828 23.471 93.9147 23.3815 93.9232C23.2919 93.9317 23.2017 93.9164 23.1199 93.8789C23.0382 93.8414 22.9677 93.783 22.9157 93.7096C22.8637 93.6362 22.832 93.5504 22.8238 93.4608Z" fill="black"/>
<path d="M46.0952 75.0822L25.2757 87.103L24.0108 87.848L23.9525 87.8786C23.9182 87.8949 23.8829 87.9088 23.8468 87.9203C23.8036 87.9365 23.7589 87.9486 23.7134 87.9564C23.6852 87.9638 23.6563 87.9684 23.6272 87.9703C23.6241 87.9716 23.6208 87.9723 23.6175 87.9723C23.6141 87.9723 23.6108 87.9716 23.6077 87.9703C23.5707 87.9731 23.5336 87.9731 23.4965 87.9703C23.3808 87.9738 23.266 87.948 23.1629 87.8953C22.9177 87.7112 22.7493 87.4428 22.6903 87.1419L19.182 68.9134C19.1779 68.8737 19.1779 68.8336 19.182 68.7939C19.1792 68.7606 19.1792 68.7271 19.182 68.6938C19.1875 68.6427 19.1987 68.5923 19.2153 68.5437C19.2329 68.4952 19.2533 68.4479 19.2765 68.4019C19.2932 68.3741 19.3099 68.3435 19.3293 68.3157C19.3503 68.2846 19.3746 68.2557 19.4016 68.2295C19.4221 68.2029 19.4465 68.1795 19.4739 68.16C19.4994 68.1388 19.5263 68.1193 19.5545 68.1017L41.6388 55.3526L41.7 55.322L41.7639 55.2942C41.7731 55.2926 41.7825 55.2926 41.7917 55.2942C41.8184 55.2903 41.8456 55.2903 41.8723 55.2942C42.0151 55.3266 42.149 55.3902 42.2643 55.4805L42.7536 55.7585C42.7917 55.7739 42.8259 55.7977 42.8537 55.828C42.8944 55.8706 42.9248 55.9219 42.9426 55.9781C42.9511 56.0026 42.9576 56.0277 42.9621 56.0531L46.4705 74.2816C46.4892 74.4368 46.464 74.5942 46.3976 74.7358C46.3313 74.8773 46.2265 74.9974 46.0952 75.0822Z" fill="#FDD70D"/>
<path d="M46.0952 75.0822L25.2757 87.103L24.0108 87.848L23.9525 87.8786C23.9182 87.8949 23.8829 87.9088 23.8468 87.9203C23.8036 87.9365 23.7589 87.9486 23.7134 87.9564C23.6852 87.9638 23.6563 87.9684 23.6272 87.9703C23.6241 87.9716 23.6208 87.9723 23.6175 87.9723C23.6141 87.9723 23.6108 87.9716 23.6077 87.9703C23.5707 87.9731 23.5336 87.9731 23.4965 87.9703C23.3808 87.9738 23.266 87.948 23.1629 87.8953C22.9177 87.7112 22.7493 87.4428 22.6903 87.1419L19.182 68.9134C19.1779 68.8737 19.1779 68.8336 19.182 68.7939C19.1792 68.7606 19.1792 68.7271 19.182 68.6938C19.1875 68.6427 19.1987 68.5923 19.2153 68.5437C19.2329 68.4952 19.2533 68.4479 19.2765 68.4019C19.2932 68.3741 19.3099 68.3435 19.3293 68.3157C19.3503 68.2846 19.3746 68.2557 19.4016 68.2295C19.4221 68.2029 19.4465 68.1795 19.4739 68.16C19.4994 68.1388 19.5263 68.1193 19.5545 68.1017L41.6388 55.3526L41.7 55.322L41.7639 55.2942C41.7731 55.2926 41.7825 55.2926 41.7917 55.2942C41.8184 55.2903 41.8456 55.2903 41.8723 55.2942C42.0151 55.3266 42.149 55.3902 42.2643 55.4805L42.7536 55.7585C42.7917 55.7739 42.8259 55.7977 42.8537 55.828C42.8944 55.8706 42.9248 55.9219 42.9426 55.9781C42.9511 56.0026 42.9576 56.0277 42.9621 56.0531L46.4705 74.2816C46.4892 74.4368 46.464 74.5942 46.3976 74.7358C46.3313 74.8773 46.2265 74.9974 46.0952 75.0822Z" fill="#FDD70D"/>
<path d="M23.9525 87.8647C23.8308 87.9264 23.6971 87.9608 23.5608 87.9656C23.4244 87.9704 23.2887 87.9454 23.1629 87.8925C22.9177 87.7084 22.7493 87.44 22.6903 87.1391L19.182 68.9134C19.1567 68.7366 19.1889 68.5563 19.2737 68.3991L20.016 68.8272C19.9282 68.9834 19.895 69.1644 19.9215 69.3415L23.4326 87.57C23.4374 87.6287 23.4565 87.6854 23.4882 87.735C23.5199 87.7847 23.5633 87.8258 23.6146 87.8549C23.6658 87.8839 23.7234 87.9 23.7823 87.9017C23.8412 87.9034 23.8996 87.8907 23.9525 87.8647Z" fill="#E0E0E0"/>
<path d="M42.256 55.4582L42.7453 55.7362C42.6864 55.7098 42.6217 55.6989 42.5574 55.7048C42.4931 55.7106 42.4315 55.7329 42.3783 55.7696L20.294 68.5298C20.1746 68.6001 20.0781 68.7034 20.016 68.8272L19.2737 68.388C19.2904 68.3602 19.3071 68.3296 19.3266 68.3018C19.3476 68.2707 19.3718 68.2418 19.3988 68.2156C19.4431 68.1656 19.4947 68.1225 19.5517 68.0878L41.6361 55.3387C41.6755 55.3164 41.7163 55.2969 41.7584 55.2803C41.7676 55.2787 41.777 55.2787 41.7862 55.2803C41.8129 55.2764 41.8401 55.2764 41.8668 55.2803C42.0079 55.3106 42.1408 55.3713 42.256 55.4582Z" fill="#FAFAFA"/>
<path d="M23.4326 87.57L19.9242 69.3415C19.9027 69.1851 19.926 69.0258 19.9915 68.8821C20.0569 68.7384 20.1618 68.6162 20.294 68.5298L42.3755 55.7779C42.429 55.7394 42.4918 55.716 42.5574 55.7101C42.6231 55.7042 42.6891 55.7162 42.7485 55.7446C42.8079 55.773 42.8586 55.8169 42.8952 55.8717C42.9318 55.9265 42.953 55.9901 42.9565 56.0559L46.4621 74.2844C46.4837 74.4408 46.4603 74.6002 46.3949 74.7439C46.3294 74.8876 46.2245 75.0097 46.0924 75.0962L24.0108 87.848C23.9574 87.8858 23.8948 87.9086 23.8296 87.9141C23.7644 87.9196 23.6989 87.9075 23.6399 87.8791C23.5809 87.8508 23.5306 87.8072 23.4942 87.7528C23.4577 87.6985 23.4364 87.6353 23.4326 87.57Z" fill="#F5F5F5"/>
<path d="M39.754 69.7224C39.6708 69.6655 39.6023 69.5898 39.554 69.5014C39.5057 69.413 39.479 69.3144 39.476 69.2137V36.0677C39.4813 35.9635 39.5113 35.862 39.5635 35.7716C39.6157 35.6812 39.6886 35.6045 39.7762 35.5479L60.604 23.5271C60.6904 23.4699 60.791 23.438 60.8946 23.4349C60.9982 23.4319 61.1006 23.4578 61.1902 23.5099C61.2798 23.5619 61.3531 23.6379 61.4018 23.7294C61.4505 23.8209 61.4727 23.9242 61.4658 24.0275V57.1735C61.4605 57.2777 61.4305 57.3792 61.3783 57.4696C61.3261 57.56 61.2532 57.6367 61.1655 57.6934L40.3517 69.7141C40.2601 69.7636 40.1579 69.7902 40.0539 69.7917C39.9498 69.7931 39.8469 69.7694 39.754 69.7224Z" fill="#EBEBEB"/>
<path d="M61.463 23.9747C61.4352 23.8218 61.3129 23.769 61.1656 23.8552L40.3461 35.862C40.257 35.9171 40.1841 35.9948 40.1349 36.0872L39.5789 35.7619C39.6306 35.6697 39.7041 35.5914 39.7929 35.534L60.604 23.5299C60.6945 23.484 60.7945 23.4601 60.8959 23.4601C60.9973 23.4601 61.0973 23.484 61.1878 23.5299C61.2609 23.5821 61.3229 23.6482 61.3702 23.7246C61.4175 23.801 61.449 23.886 61.463 23.9747Z" fill="#FAFAFA"/>
<path d="M40.31 69.7335C40.2231 69.7748 40.1282 69.7962 40.032 69.7962C39.9358 69.7962 39.8408 69.7748 39.754 69.7335C39.6708 69.6766 39.6023 69.6009 39.554 69.5125C39.5057 69.4241 39.479 69.3255 39.476 69.2248V36.0677C39.4795 35.9638 39.5092 35.8625 39.5622 35.773L40.1182 36.0983C40.0632 36.187 40.0325 36.2887 40.0292 36.393V69.5389C40.0459 69.7141 40.1626 69.7975 40.31 69.7335Z" fill="#E0E0E0"/>
<path d="M40.3489 69.7141L61.16 57.6934C61.2476 57.6367 61.3206 57.56 61.3728 57.4696C61.425 57.3792 61.4549 57.2777 61.4602 57.1735V24.0276C61.4602 23.8357 61.3268 23.7496 61.16 23.8552L40.3489 35.862C40.2613 35.9187 40.1883 35.9954 40.1361 36.0858C40.0839 36.1761 40.054 36.2776 40.0487 36.3819V69.5389C40.0487 69.7308 40.1821 69.8086 40.3489 69.7141Z" fill="#F5F5F5"/>
<g opacity="0.3">
<path d="M41.5666 50.9713C41.5666 51.2271 41.7973 51.3021 42.0781 51.1381L59.4336 41.1301C59.5712 41.0518 59.6889 40.9428 59.7776 40.8117C59.8663 40.6806 59.9236 40.5308 59.9451 40.3739C59.9451 40.1182 59.7144 40.0431 59.4336 40.2072L42.0781 50.2152C41.9405 50.2935 41.8228 50.4024 41.7341 50.5336C41.6454 50.6647 41.5881 50.8145 41.5666 50.9713Z" fill="#455A64"/>
<path d="M41.5666 53.7402C41.5666 53.9932 41.7973 54.0682 42.0781 53.907L59.4336 43.899C59.5716 43.8212 59.6896 43.7124 59.7784 43.5811C59.8672 43.4499 59.9242 43.2999 59.9451 43.1428C59.9451 42.8871 59.7144 42.8148 59.4336 42.976L42.0781 52.9979C41.9418 53.0744 41.8248 53.181 41.7362 53.3097C41.6475 53.4384 41.5895 53.5856 41.5666 53.7402Z" fill="#455A64"/>
<path d="M41.5666 56.5063C41.5666 56.762 41.7973 56.8371 42.0781 56.6731L59.4336 46.6651C59.5712 46.5868 59.6889 46.4778 59.7776 46.3467C59.8663 46.2156 59.9236 46.0658 59.9451 45.9089C59.9451 45.6532 59.7144 45.5781 59.4336 45.7421L42.0781 55.7501C41.9405 55.8285 41.8228 55.9374 41.7341 56.0685C41.6454 56.1997 41.5881 56.3494 41.5666 56.5063Z" fill="#455A64"/>
<path d="M41.5666 59.2752C41.5666 59.5309 41.7973 59.6032 42.0781 59.442L59.4336 49.434C59.5716 49.3561 59.6896 49.2473 59.7784 49.1161C59.8672 48.9849 59.9242 48.8348 59.9451 48.6778C59.9451 48.4248 59.7144 48.3498 59.4336 48.511L42.0781 58.519C41.9401 58.5968 41.8221 58.7056 41.7333 58.8369C41.6445 58.9681 41.5875 59.1181 41.5666 59.2752Z" fill="#455A64"/>
<path d="M41.5666 42.6674C41.5666 42.9232 41.7973 42.9983 42.0781 42.8342L59.4336 32.8262C59.5712 32.7479 59.6889 32.639 59.7776 32.5078C59.8663 32.3767 59.9236 32.2269 59.9451 32.0701C59.9451 31.8143 59.7144 31.7393 59.4336 31.9033L42.0781 41.9113C41.9405 41.9896 41.8228 42.0986 41.7341 42.2297C41.6454 42.3608 41.5881 42.5106 41.5666 42.6674Z" fill="#455A64"/>
<path d="M41.5666 45.4363C41.5666 45.6921 41.7973 45.7644 42.0781 45.6031L59.4336 35.5951C59.5716 35.5173 59.6896 35.4085 59.7784 35.2773C59.8672 35.146 59.9242 34.996 59.9451 34.839C59.9451 34.586 59.7144 34.5109 59.4336 34.6749L42.0781 44.6829C41.9407 44.7608 41.8231 44.8693 41.7344 44.9999C41.6457 45.1306 41.5883 45.2799 41.5666 45.4363Z" fill="#455A64"/>
<path d="M41.5666 39.9041C41.5666 40.1599 41.7973 40.2349 42.0781 40.0709L59.4336 30.0629C59.5712 29.9846 59.6889 29.8757 59.7776 29.7445C59.8663 29.6134 59.9236 29.4636 59.9451 29.3068C59.9451 29.051 59.7144 28.9759 59.4336 29.14L42.0781 39.148C41.9405 39.2263 41.8228 39.3352 41.7341 39.4664C41.6454 39.5975 41.5881 39.7473 41.5666 39.9041Z" fill="#455A64"/>
<path d="M41.5666 48.2052C41.5666 48.4582 41.7973 48.5332 42.0781 48.3692L59.4336 38.3612C59.5713 38.2831 59.6891 38.1742 59.7779 38.043C59.8666 37.9118 59.9238 37.762 59.9451 37.6051C59.9451 37.3493 59.7144 37.2742 59.4336 37.4383L42.0781 47.4463C41.9402 47.5249 41.8222 47.6342 41.7335 47.7659C41.6448 47.8975 41.5877 48.0479 41.5666 48.2052Z" fill="#455A64"/>
<path d="M41.5666 62.0441C41.5666 62.297 41.7973 62.3721 42.0781 62.2081L59.4336 52.2001C59.5712 52.1217 59.6889 52.0128 59.7776 51.8817C59.8663 51.7505 59.9236 51.6008 59.9451 51.4439C59.9451 51.1882 59.7144 51.1131 59.4336 51.2771L42.0781 61.2851C41.9402 61.3637 41.8222 61.4731 41.7335 61.6047C41.6448 61.7364 41.5877 61.8867 41.5666 62.0441Z" fill="#455A64"/>
<path d="M41.5666 64.8102C41.5666 65.0659 41.7973 65.141 42.0781 64.977L59.4336 54.969C59.5716 54.8911 59.6896 54.7823 59.7784 54.6511C59.8672 54.5199 59.9242 54.3698 59.9451 54.2128C59.9451 53.9598 59.7144 53.8848 59.4336 54.0488L42.0781 64.0568C41.9407 64.1347 41.8231 64.2431 41.7344 64.3738C41.6457 64.5044 41.5883 64.6537 41.5666 64.8102Z" fill="#455A64"/>
</g>
<path d="M55.5666 51.9999C55.5746 51.9175 55.5615 51.8344 55.5284 51.7585C55.4953 51.6827 55.4434 51.6165 55.3776 51.5662C55.3628 51.5547 55.347 51.5444 55.3303 51.5356L54.3351 50.9574C54.2573 50.922 54.1715 50.908 54.0865 50.9168C54.0014 50.9256 53.9203 50.9569 53.8514 51.0074L33.9549 62.4805L33.36 60.1397C33.3185 59.9824 33.2192 59.8464 33.082 59.7589L32.0478 59.1556C31.9515 59.101 31.8421 59.0737 31.7314 59.0766C31.6207 59.0796 31.5129 59.1126 31.4196 59.1723L22.96 64.0623C22.7593 64.1928 22.5923 64.3689 22.4725 64.5761C22.3527 64.7833 22.2835 65.0159 22.2706 65.2549V93.4831C22.2625 93.5652 22.2754 93.648 22.308 93.7239C22.3405 93.7997 22.3917 93.866 22.4568 93.9167L23.5216 94.5367C23.5985 94.567 23.6819 94.5775 23.7639 94.5673C23.846 94.5571 23.9242 94.5265 23.9914 94.4783L54.8911 76.639C55.0918 76.5085 55.2588 76.3325 55.3786 76.1253C55.4984 75.918 55.5676 75.6855 55.5805 75.4464L55.5666 51.9999Z" fill="#FDD70D"/>
<path opacity="0.4" d="M33.082 59.7505C32.986 59.6997 32.8781 59.6755 32.7696 59.6804C32.6611 59.6852 32.5559 59.7191 32.4648 59.7783L23.9914 64.6628C23.7891 64.7913 23.6219 64.968 23.5049 65.1771L22.4735 64.5766C22.5886 64.3661 22.7562 64.1889 22.96 64.0623L31.414 59.1779C31.5078 59.1182 31.6161 59.0852 31.7272 59.0823C31.8383 59.0793 31.9482 59.1066 32.0451 59.1612L33.082 59.7505Z" fill="white"/>
<path opacity="0.4" d="M55.322 51.5357C55.2463 51.5118 55.1662 51.5055 55.0878 51.517C55.0093 51.5286 54.9344 51.5578 54.8688 51.6024L34.964 63.106C34.883 63.1597 34.7902 63.193 34.6936 63.2031C34.5969 63.2131 34.4993 63.1997 34.4089 63.164C34.3186 63.1282 34.2382 63.0712 34.1746 62.9977C34.1111 62.9242 34.0662 62.8364 34.0439 62.7418L33.9521 62.4916L53.8486 51.0158C53.9394 50.9583 54.0441 50.9266 54.1516 50.9241C54.2137 50.9236 54.2749 50.9389 54.3295 50.9685L55.322 51.5357Z" fill="white"/>
<path d="M55.5666 52.0027L55.5805 75.4464C55.5676 75.6855 55.4984 75.9181 55.3786 76.1253C55.2588 76.3325 55.0918 76.5086 54.8911 76.639L23.908 94.52C23.8462 94.5557 23.776 94.5745 23.7047 94.5744C23.6333 94.5743 23.5632 94.5554 23.5014 94.5196C23.4397 94.4838 23.3885 94.4324 23.353 94.3704C23.3174 94.3085 23.2989 94.2383 23.2992 94.167V65.8554C23.3068 65.6168 23.3757 65.3841 23.4993 65.1799C23.6165 64.9709 23.7836 64.7941 23.9858 64.6656L32.4537 59.77C32.5451 59.7116 32.6502 59.6782 32.7586 59.6733C32.8669 59.6684 32.9746 59.6922 33.0709 59.7422H33.0903C33.2279 59.8293 33.3273 59.9655 33.3683 60.1231L33.9493 62.4583L34.0411 62.7113C34.063 62.8058 34.1076 62.8935 34.1708 62.9671C34.2341 63.0406 34.3143 63.0977 34.4044 63.1335C34.4946 63.1693 34.5921 63.1827 34.6886 63.1726C34.7851 63.1625 34.8777 63.1291 34.9585 63.0754L54.8744 51.5857C54.9392 51.5406 55.0136 51.511 55.0918 51.4995C55.1699 51.4879 55.2496 51.4946 55.3248 51.519L55.3526 51.5357H55.3692C55.4414 51.5883 55.498 51.6595 55.5327 51.7418C55.5675 51.8241 55.5792 51.9143 55.5666 52.0027Z" fill="#FDD70D"/>
<path d="M37.7552 73.8007C37.7989 73.8203 37.8462 73.8308 37.8942 73.8313C37.9558 73.831 38.0162 73.8135 38.0683 73.7805C38.1204 73.7476 38.1622 73.7006 38.1889 73.645L39.1146 71.6851V75.1601C39.1221 75.2415 39.1598 75.3172 39.2202 75.3723C39.2806 75.4274 39.3595 75.458 39.4412 75.458C39.523 75.458 39.6019 75.4274 39.6623 75.3723C39.7227 75.3172 39.7604 75.2415 39.7679 75.1601V70.9901L40.7604 71.9464C40.8227 72.0065 40.9063 72.0394 40.9928 72.0378C41.0794 72.0363 41.1617 72.0004 41.2218 71.9381C41.2819 71.8758 41.3148 71.7921 41.3132 71.7056C41.3117 71.6191 41.2758 71.5367 41.2135 71.4766L39.6678 69.9893C39.6304 69.9534 39.585 69.9269 39.5354 69.912C39.4858 69.897 39.4334 69.894 39.3824 69.9033C39.3314 69.9125 39.2833 69.9336 39.2421 69.965C39.2009 69.9964 39.1676 70.0371 39.1452 70.0838L37.5995 73.3587C37.5798 73.3977 37.5683 73.4404 37.5655 73.4841C37.5627 73.5277 37.5688 73.5715 37.5833 73.6128C37.5979 73.654 37.6206 73.692 37.6501 73.7242C37.6796 73.7565 37.7154 73.7825 37.7552 73.8007Z" fill="#263238"/>
<path d="M41.6611 72.7776C41.6184 72.7776 41.5761 72.786 41.5366 72.8024C41.4971 72.8187 41.4613 72.8427 41.4311 72.8729C41.4009 72.9031 41.3769 72.9389 41.3606 72.9784C41.3442 73.0179 41.3358 73.0602 41.3358 73.1029V75.06L37.5467 77.2479V75.6577C37.5391 75.5763 37.5015 75.5006 37.4411 75.4455C37.3806 75.3904 37.3018 75.3598 37.22 75.3598C37.1382 75.3598 37.0594 75.3904 36.999 75.4455C36.9386 75.5006 36.9009 75.5763 36.8934 75.6577V77.8122C36.8942 77.8688 36.9097 77.9242 36.9385 77.973C36.9672 78.0217 37.0082 78.0621 37.0574 78.0902C37.1066 78.1193 37.1628 78.1347 37.22 78.1347C37.2772 78.1347 37.3334 78.1193 37.3827 78.0902L41.8306 75.5243C41.8795 75.4961 41.9201 75.4556 41.9484 75.4068C41.9767 75.358 41.9917 75.3027 41.9919 75.2463V73.114C41.9934 73.0699 41.9859 73.0259 41.9699 72.9848C41.9539 72.9437 41.9297 72.9062 41.8987 72.8748C41.8678 72.8433 41.8307 72.8185 41.7899 72.8018C41.749 72.7851 41.7052 72.7768 41.6611 72.7776Z" fill="#263238"/>
<path opacity="0.2" d="M23.5521 94.545C23.5421 94.5475 23.5316 94.5475 23.5216 94.545L22.4568 93.9279C22.3921 93.8756 22.3412 93.8082 22.3087 93.7316C22.2762 93.655 22.2631 93.5715 22.2706 93.4886V65.255C22.2785 65.0151 22.3484 64.7814 22.4735 64.5766L23.5049 65.1771C23.3798 65.3819 23.3099 65.6156 23.3019 65.8554V94.1725C23.3017 94.2525 23.3253 94.3307 23.3699 94.3971C23.4145 94.4635 23.478 94.515 23.5521 94.545Z" fill="black"/>
<path d="M84.5453 87.6395V89.7579L92.7047 98.6038V96.4855L84.5453 87.6395Z" fill="#FDD70D"/>
<path opacity="0.15" d="M84.5453 87.6395V89.7579L92.7047 98.6038V96.4855L84.5453 87.6395Z" fill="black"/>
<path d="M93.4942 89.2491V87.1308L92.7047 96.4855V98.6038L93.4942 89.2491Z" fill="#FDD70D"/>
<path opacity="0.2" d="M93.4942 89.2491V87.1308L92.7047 96.4855V98.6038L93.4942 89.2491Z" fill="black"/>
<path d="M66.0111 101.923C56.4979 101.125 47.7687 97.3 43.4709 91.74L43.6349 89.794L46.9709 89.024C51.3466 94.6813 62.0468 98.2619 72.419 97.5363C78.5545 97.1054 83.8531 95.2206 86.9501 92.3627L90.1276 93.686L89.9664 95.632C86.0744 99.2127 79.9584 101.47 72.7304 101.97C70.4927 102.127 68.2463 102.111 66.0111 101.923Z" fill="#FDD70D"/>
<g opacity="0.15">
<path d="M66.0111 101.923C56.4979 101.125 47.7687 97.3 43.4709 91.74L43.6349 89.794L46.9709 89.024C51.3466 94.6813 62.0468 98.2619 72.419 97.5363C78.5545 97.1054 83.8531 95.2206 86.9501 92.3627L90.1276 93.686L89.9664 95.632C86.0744 99.2127 79.9584 101.47 72.7304 101.97C70.4927 102.127 68.2463 102.111 66.0111 101.923Z" fill="black"/>
</g>
<path d="M93.4942 87.1308L84.5454 87.6395L87.1224 90.4334C84.0227 93.2912 78.7268 95.1761 72.5886 95.607C62.2192 96.3326 51.5162 92.7519 47.1432 87.0946L43.646 89.8079C47.9439 95.3679 56.6731 99.1821 66.1862 99.9799C68.4232 100.169 70.6715 100.186 72.9111 100.03C80.1391 99.524 86.2551 97.2722 90.1471 93.6916L92.7241 96.4855L93.4942 87.1308Z" fill="#FDD70D"/>
</svg>
