<svg width="174" height="66" viewBox="0 0 174 66" fill="none" xmlns="http://www.w3.org/2000/svg">
<path d="M49.592 30.24V48H45.488V30.24H49.592ZM65.7901 34.608V48H61.6861V46.176C61.2701 46.768 60.7021 47.248 59.9821 47.616C59.2781 47.968 58.4941 48.144 57.6301 48.144C56.6061 48.144 55.7021 47.92 54.9181 47.472C54.1341 47.008 53.5261 46.344 53.0941 45.48C52.6621 44.616 52.4461 43.6 52.4461 42.432V34.608H56.5261V41.88C56.5261 42.776 56.7581 43.472 57.2221 43.968C57.6861 44.464 58.3101 44.712 59.0941 44.712C59.8941 44.712 60.5261 44.464 60.9901 43.968C61.4541 43.472 61.6861 42.776 61.6861 41.88V34.608H65.7901ZM73.826 34.416C74.77 34.416 75.594 34.608 76.298 34.992C77.018 35.376 77.57 35.88 77.954 36.504V34.608H82.058V47.976C82.058 49.208 81.81 50.32 81.314 51.312C80.834 52.32 80.09 53.12 79.082 53.712C78.09 54.304 76.85 54.6 75.362 54.6C73.378 54.6 71.77 54.128 70.538 53.184C69.306 52.256 68.602 50.992 68.426 49.392H72.482C72.61 49.904 72.914 50.304 73.394 50.592C73.874 50.896 74.466 51.048 75.17 51.048C76.018 51.048 76.69 50.8 77.186 50.304C77.698 49.824 77.954 49.048 77.954 47.976V46.08C77.554 46.704 77.002 47.216 76.298 47.616C75.594 48 74.77 48.192 73.826 48.192C72.722 48.192 71.722 47.912 70.826 47.352C69.93 46.776 69.218 45.968 68.69 44.928C68.178 43.872 67.922 42.656 67.922 41.28C67.922 39.904 68.178 38.696 68.69 37.656C69.218 36.616 69.93 35.816 70.826 35.256C71.722 34.696 72.722 34.416 73.826 34.416ZM77.954 41.304C77.954 40.28 77.666 39.472 77.09 38.88C76.53 38.288 75.842 37.992 75.026 37.992C74.21 37.992 73.514 38.288 72.938 38.88C72.378 39.456 72.098 40.256 72.098 41.28C72.098 42.304 72.378 43.12 72.938 43.728C73.514 44.32 74.21 44.616 75.026 44.616C75.842 44.616 76.53 44.32 77.09 43.728C77.666 43.136 77.954 42.328 77.954 41.304ZM98.2511 34.608V48H94.1471V46.176C93.7311 46.768 93.1631 47.248 92.4431 47.616C91.7391 47.968 90.9551 48.144 90.0911 48.144C89.0671 48.144 88.1631 47.92 87.3791 47.472C86.5951 47.008 85.9871 46.344 85.5551 45.48C85.1231 44.616 84.9071 43.6 84.9071 42.432V34.608H88.9871V41.88C88.9871 42.776 89.2191 43.472 89.6831 43.968C90.1471 44.464 90.7711 44.712 91.5551 44.712C92.3551 44.712 92.9871 44.464 93.4511 43.968C93.9151 43.472 94.1471 42.776 94.1471 41.88V34.608H98.2511ZM113.823 41.088C113.823 41.472 113.799 41.872 113.751 42.288H104.463C104.527 43.12 104.791 43.76 105.255 44.208C105.735 44.64 106.319 44.856 107.007 44.856C108.031 44.856 108.743 44.424 109.143 43.56H113.511C113.287 44.44 112.879 45.232 112.287 45.936C111.711 46.64 110.983 47.192 110.103 47.592C109.223 47.992 108.239 48.192 107.151 48.192C105.839 48.192 104.671 47.912 103.647 47.352C102.623 46.792 101.823 45.992 101.247 44.952C100.671 43.912 100.383 42.696 100.383 41.304C100.383 39.912 100.663 38.696 101.223 37.656C101.799 36.616 102.599 35.816 103.623 35.256C104.647 34.696 105.823 34.416 107.151 34.416C108.447 34.416 109.599 34.688 110.607 35.232C111.615 35.776 112.399 36.552 112.959 37.56C113.535 38.568 113.823 39.744 113.823 41.088ZM109.623 40.008C109.623 39.304 109.383 38.744 108.903 38.328C108.423 37.912 107.823 37.704 107.103 37.704C106.415 37.704 105.831 37.904 105.351 38.304C104.887 38.704 104.599 39.272 104.487 40.008H109.623Z" fill="#FDD70D"/>
<path d="M126.188 39.36C127.164 39.568 127.948 40.056 128.54 40.824C129.132 41.576 129.428 42.44 129.428 43.416C129.428 44.824 128.932 45.944 127.94 46.776C126.964 47.592 125.596 48 123.836 48H115.988V31.152H123.572C125.284 31.152 126.62 31.544 127.58 32.328C128.556 33.112 129.044 34.176 129.044 35.52C129.044 36.512 128.78 37.336 128.252 37.992C127.74 38.648 127.052 39.104 126.188 39.36ZM120.092 37.968H122.78C123.452 37.968 123.964 37.824 124.316 37.536C124.684 37.232 124.868 36.792 124.868 36.216C124.868 35.64 124.684 35.2 124.316 34.896C123.964 34.592 123.452 34.44 122.78 34.44H120.092V37.968ZM123.116 44.688C123.804 44.688 124.332 44.536 124.7 44.232C125.084 43.912 125.276 43.456 125.276 42.864C125.276 42.272 125.076 41.808 124.676 41.472C124.292 41.136 123.756 40.968 123.068 40.968H120.092V44.688H123.116ZM144.432 41.088C144.432 41.472 144.408 41.872 144.36 42.288H135.072C135.136 43.12 135.4 43.76 135.864 44.208C136.344 44.64 136.928 44.856 137.616 44.856C138.64 44.856 139.352 44.424 139.752 43.56H144.12C143.896 44.44 143.488 45.232 142.896 45.936C142.32 46.64 141.592 47.192 140.712 47.592C139.832 47.992 138.848 48.192 137.76 48.192C136.448 48.192 135.28 47.912 134.256 47.352C133.232 46.792 132.432 45.992 131.856 44.952C131.28 43.912 130.992 42.696 130.992 41.304C130.992 39.912 131.272 38.696 131.832 37.656C132.408 36.616 133.208 35.816 134.232 35.256C135.256 34.696 136.432 34.416 137.76 34.416C139.056 34.416 140.208 34.688 141.216 35.232C142.224 35.776 143.008 36.552 143.568 37.56C144.144 38.568 144.432 39.744 144.432 41.088ZM140.232 40.008C140.232 39.304 139.992 38.744 139.512 38.328C139.032 37.912 138.432 37.704 137.712 37.704C137.024 37.704 136.44 37.904 135.96 38.304C135.496 38.704 135.208 39.272 135.096 40.008H140.232ZM163.685 34.464C165.349 34.464 166.669 34.968 167.645 35.976C168.637 36.984 169.133 38.384 169.133 40.176V48H165.053V40.728C165.053 39.864 164.821 39.2 164.357 38.736C163.909 38.256 163.285 38.016 162.485 38.016C161.685 38.016 161.053 38.256 160.589 38.736C160.141 39.2 159.917 39.864 159.917 40.728V48H155.837V40.728C155.837 39.864 155.605 39.2 155.141 38.736C154.693 38.256 154.069 38.016 153.269 38.016C152.469 38.016 151.837 38.256 151.373 38.736C150.925 39.2 150.701 39.864 150.701 40.728V48H146.597V34.608H150.701V36.288C151.117 35.728 151.661 35.288 152.333 34.968C153.005 34.632 153.765 34.464 154.613 34.464C155.621 34.464 156.517 34.68 157.301 35.112C158.101 35.544 158.725 36.16 159.173 36.96C159.637 36.224 160.269 35.624 161.069 35.16C161.869 34.696 162.741 34.464 163.685 34.464Z" fill="#28AAE3"/>
<g clip-path="url(#clip0_119_65)">
<path d="M42 48H28V35H20V48H6V27C6 26.7348 6.10536 26.4804 6.29289 26.2929C6.48043 26.1054 6.73478 26 7 26C7.26522 26 7.51957 26.1054 7.70711 26.2929C7.89464 26.4804 8 26.7348 8 27V46H18V33H30V46H40V28C40 27.7348 40.1054 27.4804 40.2929 27.2929C40.4804 27.1054 40.7348 27 41 27C41.2652 27 41.5196 27.1054 41.7071 27.2929C41.8946 27.4804 42 27.7348 42 28V48Z" fill="#FDD70D"/>
<path d="M47 27C46.7425 27.0003 46.4949 26.9011 46.309 26.723L24 5.384L1.691 26.723C1.49938 26.9064 1.24276 27.0062 0.977582 27.0003C0.712405 26.9945 0.460399 26.8836 0.277002 26.692C0.0936049 26.5004 -0.00616054 26.2438 -0.000346911 25.9786C0.00546672 25.7134 0.116383 25.4614 0.308002 25.278L24 2.616L47.691 25.277C47.8354 25.415 47.9352 25.593 47.9775 25.7882C48.0198 25.9835 48.0026 26.1868 47.9283 26.3722C47.854 26.5576 47.7258 26.7165 47.5603 26.8284C47.3949 26.9402 47.1997 27 47 27ZM39 15C38.7348 15 38.4804 14.8946 38.2929 14.7071C38.1054 14.5196 38 14.2652 38 14V8H32C31.7348 8 31.4804 7.89464 31.2929 7.7071C31.1054 7.51957 31 7.26521 31 7C31 6.73478 31.1054 6.48043 31.2929 6.29289C31.4804 6.10535 31.7348 6 32 6H40V14C40 14.2652 39.8946 14.5196 39.7071 14.7071C39.5196 14.8946 39.2652 15 39 15Z" fill="#FDD70D"/>
</g>
<path d="M125 55H164C166.761 55 169 57.2386 169 60V61C169 63.7614 166.761 66 164 66H130C127.239 66 125 63.7614 125 61V55Z" fill="#1D92C5"/>
<path d="M132.33 58.49V59.175H131.4V62H130.545V59.175H129.615V58.49H132.33ZM133.614 59.675C133.714 59.5217 133.839 59.4017 133.989 59.315C134.139 59.225 134.305 59.18 134.489 59.18V60.085H134.254C134.04 60.085 133.88 60.1317 133.774 60.225C133.667 60.315 133.614 60.475 133.614 60.705V62H132.759V59.21H133.614V59.675ZM134.727 60.6C134.727 60.3133 134.781 60.0617 134.887 59.845C134.997 59.6283 135.146 59.4617 135.332 59.345C135.519 59.2283 135.727 59.17 135.957 59.17C136.154 59.17 136.326 59.21 136.472 59.29C136.622 59.37 136.737 59.475 136.817 59.605V59.21H137.672V62H136.817V61.605C136.734 61.735 136.617 61.84 136.467 61.92C136.321 62 136.149 62.04 135.952 62.04C135.726 62.04 135.519 61.9817 135.332 61.865C135.146 61.745 134.997 61.5767 134.887 61.36C134.781 61.14 134.727 60.8867 134.727 60.6ZM136.817 60.605C136.817 60.3917 136.757 60.2233 136.637 60.1C136.521 59.9767 136.377 59.915 136.207 59.915C136.037 59.915 135.892 59.9767 135.772 60.1C135.656 60.22 135.597 60.3867 135.597 60.6C135.597 60.8133 135.656 60.9833 135.772 61.11C135.892 61.2333 136.037 61.295 136.207 61.295C136.377 61.295 136.521 61.2333 136.637 61.11C136.757 60.9867 136.817 60.8183 136.817 60.605ZM139.991 59.18C140.318 59.18 140.578 59.2867 140.771 59.5C140.968 59.71 141.066 60 141.066 60.37V62H140.216V60.485C140.216 60.2983 140.168 60.1533 140.071 60.05C139.974 59.9467 139.844 59.895 139.681 59.895C139.518 59.895 139.388 59.9467 139.291 60.05C139.194 60.1533 139.146 60.2983 139.146 60.485V62H138.291V59.21H139.146V59.58C139.233 59.4567 139.349 59.36 139.496 59.29C139.643 59.2167 139.808 59.18 139.991 59.18ZM142.795 62.04C142.552 62.04 142.335 61.9983 142.145 61.915C141.955 61.8317 141.805 61.7183 141.695 61.575C141.585 61.4283 141.523 61.265 141.51 61.085H142.355C142.365 61.1817 142.41 61.26 142.49 61.32C142.57 61.38 142.668 61.41 142.785 61.41C142.892 61.41 142.973 61.39 143.03 61.35C143.09 61.3067 143.12 61.2517 143.12 61.185C143.12 61.105 143.078 61.0467 142.995 61.01C142.912 60.97 142.777 60.9267 142.59 60.88C142.39 60.8333 142.223 60.785 142.09 60.735C141.957 60.6817 141.842 60.6 141.745 60.49C141.648 60.3767 141.6 60.225 141.6 60.035C141.6 59.875 141.643 59.73 141.73 59.6C141.82 59.4667 141.95 59.3617 142.12 59.285C142.293 59.2083 142.498 59.17 142.735 59.17C143.085 59.17 143.36 59.2567 143.56 59.43C143.763 59.6033 143.88 59.8333 143.91 60.12H143.12C143.107 60.0233 143.063 59.9467 142.99 59.89C142.92 59.8333 142.827 59.805 142.71 59.805C142.61 59.805 142.533 59.825 142.48 59.865C142.427 59.9017 142.4 59.9533 142.4 60.02C142.4 60.1 142.442 60.16 142.525 60.2C142.612 60.24 142.745 60.28 142.925 60.32C143.132 60.3733 143.3 60.4267 143.43 60.48C143.56 60.53 143.673 60.6133 143.77 60.73C143.87 60.8433 143.922 60.9967 143.925 61.19C143.925 61.3533 143.878 61.5 143.785 61.63C143.695 61.7567 143.563 61.8567 143.39 61.93C143.22 62.0033 143.022 62.04 142.795 62.04ZM145.848 59.92H145.388V62H144.533V59.92H144.223V59.21H144.533V59.13C144.533 58.7867 144.632 58.5267 144.828 58.35C145.025 58.17 145.313 58.08 145.693 58.08C145.757 58.08 145.803 58.0817 145.833 58.085V58.81C145.67 58.8 145.555 58.8233 145.488 58.88C145.422 58.9367 145.388 59.0383 145.388 59.185V59.21H145.848V59.92ZM148.88 60.56C148.88 60.64 148.875 60.7233 148.865 60.81H146.93C146.943 60.9833 146.998 61.1167 147.095 61.21C147.195 61.3 147.317 61.345 147.46 61.345C147.673 61.345 147.822 61.255 147.905 61.075H148.815C148.768 61.2583 148.683 61.4233 148.56 61.57C148.44 61.7167 148.288 61.8317 148.105 61.915C147.922 61.9983 147.717 62.04 147.49 62.04C147.217 62.04 146.973 61.9817 146.76 61.865C146.547 61.7483 146.38 61.5817 146.26 61.365C146.14 61.1483 146.08 60.895 146.08 60.605C146.08 60.315 146.138 60.0617 146.255 59.845C146.375 59.6283 146.542 59.4617 146.755 59.345C146.968 59.2283 147.213 59.17 147.49 59.17C147.76 59.17 148 59.2267 148.21 59.34C148.42 59.4533 148.583 59.615 148.7 59.825C148.82 60.035 148.88 60.28 148.88 60.56ZM148.005 60.335C148.005 60.1883 147.955 60.0717 147.855 59.985C147.755 59.8983 147.63 59.855 147.48 59.855C147.337 59.855 147.215 59.8967 147.115 59.98C147.018 60.0633 146.958 60.1817 146.935 60.335H148.005ZM150.186 59.675C150.286 59.5217 150.411 59.4017 150.561 59.315C150.711 59.225 150.878 59.18 151.061 59.18V60.085H150.826C150.613 60.085 150.453 60.1317 150.346 60.225C150.239 60.315 150.186 60.475 150.186 60.705V62H149.331V59.21H150.186V59.675ZM154.1 60.56C154.1 60.64 154.095 60.7233 154.085 60.81H152.15C152.163 60.9833 152.218 61.1167 152.315 61.21C152.415 61.3 152.536 61.345 152.68 61.345C152.893 61.345 153.041 61.255 153.125 61.075H154.035C153.988 61.2583 153.903 61.4233 153.78 61.57C153.66 61.7167 153.508 61.8317 153.325 61.915C153.141 61.9983 152.936 62.04 152.71 62.04C152.436 62.04 152.193 61.9817 151.98 61.865C151.766 61.7483 151.6 61.5817 151.48 61.365C151.36 61.1483 151.3 60.895 151.3 60.605C151.3 60.315 151.358 60.0617 151.475 59.845C151.595 59.6283 151.761 59.4617 151.975 59.345C152.188 59.2283 152.433 59.17 152.71 59.17C152.98 59.17 153.22 59.2267 153.43 59.34C153.64 59.4533 153.803 59.615 153.92 59.825C154.04 60.035 154.1 60.28 154.1 60.56ZM153.225 60.335C153.225 60.1883 153.175 60.0717 153.075 59.985C152.975 59.8983 152.85 59.855 152.7 59.855C152.556 59.855 152.435 59.8967 152.335 59.98C152.238 60.0633 152.178 60.1817 152.155 60.335H153.225ZM152.7 58.59L151.925 59V58.41L152.7 58.015L153.475 58.41V59L152.7 58.59ZM156.251 59.18C156.577 59.18 156.837 59.2867 157.031 59.5C157.227 59.71 157.326 60 157.326 60.37V62H156.476V60.485C156.476 60.2983 156.427 60.1533 156.331 60.05C156.234 59.9467 156.104 59.895 155.941 59.895C155.777 59.895 155.647 59.9467 155.551 60.05C155.454 60.1533 155.406 60.2983 155.406 60.485V62H154.551V59.21H155.406V59.58C155.492 59.4567 155.609 59.36 155.756 59.29C155.902 59.2167 156.067 59.18 156.251 59.18ZM157.75 60.605C157.75 60.315 157.808 60.0617 157.925 59.845C158.045 59.6283 158.21 59.4617 158.42 59.345C158.633 59.2283 158.877 59.17 159.15 59.17C159.5 59.17 159.792 59.2617 160.025 59.445C160.262 59.6283 160.417 59.8867 160.49 60.22H159.58C159.503 60.0067 159.355 59.9 159.135 59.9C158.978 59.9 158.853 59.9617 158.76 60.085C158.667 60.205 158.62 60.3783 158.62 60.605C158.62 60.8317 158.667 61.0067 158.76 61.13C158.853 61.25 158.978 61.31 159.135 61.31C159.355 61.31 159.503 61.2033 159.58 60.99H160.49C160.417 61.3167 160.262 61.5733 160.025 61.76C159.788 61.9467 159.497 62.04 159.15 62.04C158.877 62.04 158.633 61.9817 158.42 61.865C158.21 61.7483 158.045 61.5817 157.925 61.365C157.808 61.1483 157.75 60.895 157.75 60.605ZM161.377 58.92C161.227 58.92 161.104 58.8767 161.007 58.79C160.914 58.7 160.867 58.59 160.867 58.46C160.867 58.3267 160.914 58.2167 161.007 58.13C161.104 58.04 161.227 57.995 161.377 57.995C161.524 57.995 161.644 58.04 161.737 58.13C161.834 58.2167 161.882 58.3267 161.882 58.46C161.882 58.59 161.834 58.7 161.737 58.79C161.644 58.8767 161.524 58.92 161.377 58.92ZM161.802 59.21V62H160.947V59.21H161.802ZM162.252 60.6C162.252 60.3133 162.305 60.0617 162.412 59.845C162.522 59.6283 162.67 59.4617 162.857 59.345C163.043 59.2283 163.252 59.17 163.482 59.17C163.678 59.17 163.85 59.21 163.997 59.29C164.147 59.37 164.262 59.475 164.342 59.605V59.21H165.197V62H164.342V61.605C164.258 61.735 164.142 61.84 163.992 61.92C163.845 62 163.673 62.04 163.477 62.04C163.25 62.04 163.043 61.9817 162.857 61.865C162.67 61.745 162.522 61.5767 162.412 61.36C162.305 61.14 162.252 60.8867 162.252 60.6ZM164.342 60.605C164.342 60.3917 164.282 60.2233 164.162 60.1C164.045 59.9767 163.902 59.915 163.732 59.915C163.562 59.915 163.417 59.9767 163.297 60.1C163.18 60.22 163.122 60.3867 163.122 60.6C163.122 60.8133 163.18 60.9833 163.297 61.11C163.417 61.2333 163.562 61.295 163.732 61.295C163.902 61.295 164.045 61.2333 164.162 61.11C164.282 60.9867 164.342 60.8183 164.342 60.605Z" fill="white"/>
<defs>
<clipPath id="clip0_119_65">
<rect width="48" height="48" fill="white"/>
</clipPath>
</defs>
</svg>
