<svg width="420" height="164" viewBox="0 0 420 164" fill="none" xmlns="http://www.w3.org/2000/svg">
<path d="M0 30C0 13.4315 13.4315 0 30 0H420V164H0V30Z" fill="white"/>
<rect x="445" y="140" width="24" height="65" rx="10" transform="rotate(90 445 140)" fill="#28AAE3"/>
<rect x="445" y="140" width="24" height="65" rx="10" transform="rotate(90 445 140)" fill="#28AAE3"/>
<rect x="445" y="140" width="24" height="65" rx="10" transform="rotate(90 445 140)" fill="#28AAE3"/>
<rect x="445" y="140" width="24" height="65" rx="10" transform="rotate(90 445 140)" fill="#28AAE3"/>
<rect x="445" y="140" width="24" height="65" rx="10" transform="rotate(90 445 140)" fill="#28AAE3"/>
<rect x="347" y="151" width="25" height="102" rx="10" transform="rotate(-90 347 151)" fill="#28AAE3"/>
<rect x="347" y="151" width="25" height="102" rx="10" transform="rotate(-90 347 151)" fill="#28AAE3"/>
<rect x="347" y="151" width="25" height="102" rx="10" transform="rotate(-90 347 151)" fill="#28AAE3"/>
<rect x="347" y="151" width="25" height="102" rx="10" transform="rotate(-90 347 151)" fill="#28AAE3"/>
<rect x="347" y="151" width="25" height="102" rx="10" transform="rotate(-90 347 151)" fill="#1D92C5"/>
</svg>
