<svg width="420" height="164" viewBox="0 0 420 164" fill="none" xmlns="http://www.w3.org/2000/svg">
<path d="M0 0H390C406.569 0 420 13.4315 420 30V164H0V0Z" fill="#F8FCFE"/>
<rect x="-50" y="159" width="25" height="102" rx="10" transform="rotate(-90 -50 159)" fill="#28AAE3"/>
<rect x="-50" y="159" width="25" height="102" rx="10" transform="rotate(-90 -50 159)" fill="#28AAE3"/>
<rect x="-50" y="159" width="25" height="102" rx="10" transform="rotate(-90 -50 159)" fill="#28AAE3"/>
<rect x="-50" y="159" width="25" height="102" rx="10" transform="rotate(-90 -50 159)" fill="#28AAE3"/>
<rect x="-50" y="159" width="25" height="102" rx="10" transform="rotate(-90 -50 159)" fill="#1D92C5"/>
<rect x="77" y="116" width="24" height="90" rx="10" transform="rotate(90 77 116)" fill="#28AAE3"/>
<rect x="77" y="116" width="24" height="90" rx="10" transform="rotate(90 77 116)" fill="#28AAE3"/>
<rect x="77" y="116" width="24" height="90" rx="10" transform="rotate(90 77 116)" fill="#28AAE3"/>
<rect x="77" y="116" width="24" height="90" rx="10" transform="rotate(90 77 116)" fill="#28AAE3"/>
<rect x="77" y="116" width="24" height="90" rx="10" transform="rotate(90 77 116)" fill="#28AAE3"/>
</svg>
