<svg width="73" height="38" viewBox="0 0 73 38" fill="none" xmlns="http://www.w3.org/2000/svg">
<rect x="98" y="14" width="24" height="65" rx="10" transform="rotate(90 98 14)" fill="#28AAE3"/>
<rect x="98" y="14" width="24" height="65" rx="10" transform="rotate(90 98 14)" fill="#28AAE3"/>
<rect x="98" y="14" width="24" height="65" rx="10" transform="rotate(90 98 14)" fill="#28AAE3"/>
<rect x="98" y="14" width="24" height="65" rx="10" transform="rotate(90 98 14)" fill="#28AAE3"/>
<rect x="98" y="14" width="24" height="65" rx="10" transform="rotate(90 98 14)" fill="#28AAE3"/>
<rect y="25" width="25" height="102" rx="10" transform="rotate(-90 0 25)" fill="#28AAE3"/>
<rect y="25" width="25" height="102" rx="10" transform="rotate(-90 0 25)" fill="#28AAE3"/>
<rect y="25" width="25" height="102" rx="10" transform="rotate(-90 0 25)" fill="#28AAE3"/>
<rect y="25" width="25" height="102" rx="10" transform="rotate(-90 0 25)" fill="#28AAE3"/>
<rect y="25" width="25" height="102" rx="10" transform="rotate(-90 0 25)" fill="#1D92C5"/>
</svg>
