<svg width="10" height="10" viewBox="0 0 10 10" fill="none" xmlns="http://www.w3.org/2000/svg">
<g clip-path="url(#clip0_1_154)">
<path fill-rule="evenodd" clip-rule="evenodd" d="M5 3.02084C5.17258 3.02084 5.3125 3.16075 5.3125 3.33334V4.87054L6.26263 5.82071C6.38467 5.94275 6.38467 6.14059 6.26263 6.26263C6.14058 6.38467 5.94275 6.38467 5.82071 6.26263L4.77904 5.22096C4.72042 5.16238 4.6875 5.08288 4.6875 5V3.33334C4.6875 3.16075 4.82742 3.02084 5 3.02084Z" fill="#2196F3"/>
<path fill-rule="evenodd" clip-rule="evenodd" d="M2.58458 2.55415L2.86965 2.55559C3.04224 2.55645 3.18145 2.69707 3.18058 2.86965C3.17971 3.04224 3.0391 3.18145 2.86651 3.18058L1.80587 3.17525C1.6345 3.17439 1.4958 3.03568 1.49494 2.86433L1.48961 1.80368C1.48874 1.63109 1.62795 1.49048 1.80054 1.48961C1.97312 1.48874 2.11373 1.62795 2.1146 1.80054L2.11617 2.11208C2.90511 1.32425 3.94028 0.933642 4.97721 0.937562C4.98479 0.937521 4.99237 0.9375 5 0.9375C7.24367 0.9375 9.0625 2.75634 9.0625 5C9.0625 5.73946 8.86467 6.43362 8.51883 7.03146C8.43242 7.18087 8.24125 7.23192 8.09183 7.1455C7.94246 7.05908 7.89137 6.86792 7.97783 6.71854C8.27012 6.21325 8.4375 5.62663 8.4375 5C8.4375 4.05078 8.05275 3.19142 7.43071 2.56936L7.41738 2.58272C6.74092 1.90629 5.85804 1.56638 4.97771 1.56257C4.04493 1.56849 3.20082 1.94552 2.58458 2.55415ZM1.25 4.6875C1.42259 4.6875 1.5625 4.82742 1.5625 5C1.5625 6.89846 3.10152 8.4375 5 8.4375C5.62663 8.4375 6.21325 8.27012 6.71854 7.97783C6.86792 7.89137 7.05908 7.94246 7.1455 8.09183C7.23192 8.24125 7.18087 8.43242 7.03146 8.51883C6.43362 8.86467 5.73946 9.0625 5 9.0625C2.75634 9.0625 0.9375 7.24367 0.9375 5C0.9375 4.82742 1.07741 4.6875 1.25 4.6875Z" fill="#2196F3"/>
</g>
<defs>
<clipPath id="clip0_1_154">
<rect width="10" height="10" fill="white"/>
</clipPath>
</defs>
</svg>
