<svg width="12" height="12" viewBox="0 0 12 12" fill="none" xmlns="http://www.w3.org/2000/svg">
<path d="M9.49999 7.375C9.49999 7.43657 9.47365 7.49562 9.42677 7.53915C9.37988 7.58269 9.3163 7.60715 9.24999 7.60715H1.85499L3.42499 9.06964C3.44891 9.09049 3.46797 9.11566 3.481 9.14361C3.49403 9.17156 3.50075 9.20169 3.50075 9.23215C3.50075 9.2626 3.49403 9.29273 3.481 9.32068C3.46797 9.34863 3.44891 9.3738 3.42499 9.39465C3.40255 9.41685 3.37544 9.43455 3.34534 9.44665C3.31524 9.45875 3.28279 9.46499 3.24999 9.46499C3.21719 9.46499 3.18474 9.45875 3.15465 9.44665C3.12455 9.43455 3.09744 9.41685 3.07499 9.39465L1.07499 7.5375C1.04228 7.52059 1.01606 7.49462 0.999993 7.46322C0.986767 7.43543 0.979935 7.40538 0.979935 7.375C0.979935 7.34462 0.986767 7.31458 0.999993 7.28679C1.01065 7.25782 1.02968 7.23212 1.05499 7.2125C1.0783 7.17894 1.11377 7.15424 1.15499 7.14286C1.18622 7.13595 1.21876 7.13595 1.24999 7.14286H9.24999C9.3163 7.14286 9.37988 7.16732 9.42677 7.21085C9.47365 7.25439 9.49999 7.31343 9.49999 7.375ZM11 5.05357C11.0074 5.08257 11.0074 5.11279 11 5.14179C10.9733 5.1977 10.9252 5.24239 10.865 5.26715C10.8338 5.27405 10.8012 5.27405 10.77 5.26715H2.74999C2.68369 5.26715 2.6201 5.24269 2.57322 5.19915C2.52633 5.15562 2.49999 5.09657 2.49999 5.035C2.49999 4.97343 2.52633 4.91439 2.57322 4.87085C2.6201 4.82732 2.68369 4.80286 2.74999 4.80286H10.145L8.57499 3.35893C8.52858 3.31583 8.50251 3.25738 8.50251 3.19643C8.50251 3.13548 8.52858 3.07703 8.57499 3.03393C8.62141 2.99083 8.68436 2.96662 8.74999 2.96662C8.81563 2.96662 8.87858 2.99083 8.92499 3.03393L10.925 4.89107C10.9503 4.91069 10.9693 4.93639 10.98 4.96536C10.9942 4.99285 11.001 5.02311 11 5.05357Z" fill="#2196F3"/>
</svg>
