<svg width="174" height="55" viewBox="0 0 174 55" fill="none" xmlns="http://www.w3.org/2000/svg">
<path d="M49.592 30.24V48H45.488V30.24H49.592ZM65.7901 34.608V48H61.6861V46.176C61.2701 46.768 60.7021 47.248 59.9821 47.616C59.2781 47.968 58.4941 48.144 57.6301 48.144C56.6061 48.144 55.7021 47.92 54.9181 47.472C54.1341 47.008 53.5261 46.344 53.0941 45.48C52.6621 44.616 52.4461 43.6 52.4461 42.432V34.608H56.5261V41.88C56.5261 42.776 56.7581 43.472 57.2221 43.968C57.6861 44.464 58.3101 44.712 59.0941 44.712C59.8941 44.712 60.5261 44.464 60.9901 43.968C61.4541 43.472 61.6861 42.776 61.6861 41.88V34.608H65.7901ZM73.826 34.416C74.77 34.416 75.594 34.608 76.298 34.992C77.018 35.376 77.57 35.88 77.954 36.504V34.608H82.058V47.976C82.058 49.208 81.81 50.32 81.314 51.312C80.834 52.32 80.09 53.12 79.082 53.712C78.09 54.304 76.85 54.6 75.362 54.6C73.378 54.6 71.77 54.128 70.538 53.184C69.306 52.256 68.602 50.992 68.426 49.392H72.482C72.61 49.904 72.914 50.304 73.394 50.592C73.874 50.896 74.466 51.048 75.17 51.048C76.018 51.048 76.69 50.8 77.186 50.304C77.698 49.824 77.954 49.048 77.954 47.976V46.08C77.554 46.704 77.002 47.216 76.298 47.616C75.594 48 74.77 48.192 73.826 48.192C72.722 48.192 71.722 47.912 70.826 47.352C69.93 46.776 69.218 45.968 68.69 44.928C68.178 43.872 67.922 42.656 67.922 41.28C67.922 39.904 68.178 38.696 68.69 37.656C69.218 36.616 69.93 35.816 70.826 35.256C71.722 34.696 72.722 34.416 73.826 34.416ZM77.954 41.304C77.954 40.28 77.666 39.472 77.09 38.88C76.53 38.288 75.842 37.992 75.026 37.992C74.21 37.992 73.514 38.288 72.938 38.88C72.378 39.456 72.098 40.256 72.098 41.28C72.098 42.304 72.378 43.12 72.938 43.728C73.514 44.32 74.21 44.616 75.026 44.616C75.842 44.616 76.53 44.32 77.09 43.728C77.666 43.136 77.954 42.328 77.954 41.304ZM98.2511 34.608V48H94.1471V46.176C93.7311 46.768 93.1631 47.248 92.4431 47.616C91.7391 47.968 90.9551 48.144 90.0911 48.144C89.0671 48.144 88.1631 47.92 87.3791 47.472C86.5951 47.008 85.9871 46.344 85.5551 45.48C85.1231 44.616 84.9071 43.6 84.9071 42.432V34.608H88.9871V41.88C88.9871 42.776 89.2191 43.472 89.6831 43.968C90.1471 44.464 90.7711 44.712 91.5551 44.712C92.3551 44.712 92.9871 44.464 93.4511 43.968C93.9151 43.472 94.1471 42.776 94.1471 41.88V34.608H98.2511ZM113.823 41.088C113.823 41.472 113.799 41.872 113.751 42.288H104.463C104.527 43.12 104.791 43.76 105.255 44.208C105.735 44.64 106.319 44.856 107.007 44.856C108.031 44.856 108.743 44.424 109.143 43.56H113.511C113.287 44.44 112.879 45.232 112.287 45.936C111.711 46.64 110.983 47.192 110.103 47.592C109.223 47.992 108.239 48.192 107.151 48.192C105.839 48.192 104.671 47.912 103.647 47.352C102.623 46.792 101.823 45.992 101.247 44.952C100.671 43.912 100.383 42.696 100.383 41.304C100.383 39.912 100.663 38.696 101.223 37.656C101.799 36.616 102.599 35.816 103.623 35.256C104.647 34.696 105.823 34.416 107.151 34.416C108.447 34.416 109.599 34.688 110.607 35.232C111.615 35.776 112.399 36.552 112.959 37.56C113.535 38.568 113.823 39.744 113.823 41.088ZM109.623 40.008C109.623 39.304 109.383 38.744 108.903 38.328C108.423 37.912 107.823 37.704 107.103 37.704C106.415 37.704 105.831 37.904 105.351 38.304C104.887 38.704 104.599 39.272 104.487 40.008H109.623Z" fill="#FDD70D"/>
<path d="M126.188 39.36C127.164 39.568 127.948 40.056 128.54 40.824C129.132 41.576 129.428 42.44 129.428 43.416C129.428 44.824 128.932 45.944 127.94 46.776C126.964 47.592 125.596 48 123.836 48H115.988V31.152H123.572C125.284 31.152 126.62 31.544 127.58 32.328C128.556 33.112 129.044 34.176 129.044 35.52C129.044 36.512 128.78 37.336 128.252 37.992C127.74 38.648 127.052 39.104 126.188 39.36ZM120.092 37.968H122.78C123.452 37.968 123.964 37.824 124.316 37.536C124.684 37.232 124.868 36.792 124.868 36.216C124.868 35.64 124.684 35.2 124.316 34.896C123.964 34.592 123.452 34.44 122.78 34.44H120.092V37.968ZM123.116 44.688C123.804 44.688 124.332 44.536 124.7 44.232C125.084 43.912 125.276 43.456 125.276 42.864C125.276 42.272 125.076 41.808 124.676 41.472C124.292 41.136 123.756 40.968 123.068 40.968H120.092V44.688H123.116ZM144.432 41.088C144.432 41.472 144.408 41.872 144.36 42.288H135.072C135.136 43.12 135.4 43.76 135.864 44.208C136.344 44.64 136.928 44.856 137.616 44.856C138.64 44.856 139.352 44.424 139.752 43.56H144.12C143.896 44.44 143.488 45.232 142.896 45.936C142.32 46.64 141.592 47.192 140.712 47.592C139.832 47.992 138.848 48.192 137.76 48.192C136.448 48.192 135.28 47.912 134.256 47.352C133.232 46.792 132.432 45.992 131.856 44.952C131.28 43.912 130.992 42.696 130.992 41.304C130.992 39.912 131.272 38.696 131.832 37.656C132.408 36.616 133.208 35.816 134.232 35.256C135.256 34.696 136.432 34.416 137.76 34.416C139.056 34.416 140.208 34.688 141.216 35.232C142.224 35.776 143.008 36.552 143.568 37.56C144.144 38.568 144.432 39.744 144.432 41.088ZM140.232 40.008C140.232 39.304 139.992 38.744 139.512 38.328C139.032 37.912 138.432 37.704 137.712 37.704C137.024 37.704 136.44 37.904 135.96 38.304C135.496 38.704 135.208 39.272 135.096 40.008H140.232ZM163.685 34.464C165.349 34.464 166.669 34.968 167.645 35.976C168.637 36.984 169.133 38.384 169.133 40.176V48H165.053V40.728C165.053 39.864 164.821 39.2 164.357 38.736C163.909 38.256 163.285 38.016 162.485 38.016C161.685 38.016 161.053 38.256 160.589 38.736C160.141 39.2 159.917 39.864 159.917 40.728V48H155.837V40.728C155.837 39.864 155.605 39.2 155.141 38.736C154.693 38.256 154.069 38.016 153.269 38.016C152.469 38.016 151.837 38.256 151.373 38.736C150.925 39.2 150.701 39.864 150.701 40.728V48H146.597V34.608H150.701V36.288C151.117 35.728 151.661 35.288 152.333 34.968C153.005 34.632 153.765 34.464 154.613 34.464C155.621 34.464 156.517 34.68 157.301 35.112C158.101 35.544 158.725 36.16 159.173 36.96C159.637 36.224 160.269 35.624 161.069 35.16C161.869 34.696 162.741 34.464 163.685 34.464Z" fill="#28AAE3"/>
<g clip-path="url(#clip0_21_2)">
<path d="M42 48H28V35H20V48H6V27C6 26.7348 6.10536 26.4804 6.29289 26.2929C6.48043 26.1054 6.73478 26 7 26C7.26522 26 7.51957 26.1054 7.70711 26.2929C7.89464 26.4804 8 26.7348 8 27V46H18V33H30V46H40V28C40 27.7348 40.1054 27.4804 40.2929 27.2929C40.4804 27.1054 40.7348 27 41 27C41.2652 27 41.5196 27.1054 41.7071 27.2929C41.8946 27.4804 42 27.7348 42 28V48Z" fill="#FDD70D"/>
<path d="M47 27C46.7425 27.0003 46.4949 26.9011 46.309 26.723L24 5.384L1.69098 26.723C1.49936 26.9064 1.24274 27.0062 0.977559 27.0003C0.712382 26.9945 0.460376 26.8836 0.276979 26.692C0.093582 26.5004 -0.00618343 26.2438 -0.000369799 25.9786C0.00544383 25.7134 0.11636 25.4614 0.307979 25.278L24 2.616L47.691 25.277C47.8354 25.415 47.9352 25.593 47.9775 25.7882C48.0197 25.9835 48.0026 26.1868 47.9283 26.3722C47.8539 26.5576 47.7258 26.7165 47.5603 26.8284C47.3949 26.9402 47.1997 27 47 27ZM39 15C38.7348 15 38.4804 14.8946 38.2929 14.7071C38.1053 14.5196 38 14.2652 38 14V8H32C31.7348 8 31.4804 7.89464 31.2929 7.7071C31.1053 7.51957 31 7.26521 31 7C31 6.73478 31.1053 6.48043 31.2929 6.29289C31.4804 6.10535 31.7348 6 32 6H40V14C40 14.2652 39.8946 14.5196 39.7071 14.7071C39.5196 14.8946 39.2652 15 39 15Z" fill="#FDD70D"/>
</g>
<defs>
<clipPath id="clip0_21_2">
<rect width="48" height="48" fill="white"/>
</clipPath>
</defs>
</svg>
